<svg width="57" height="57" viewBox="0 0 57 57" fill="none" xmlns="http://www.w3.org/2000/svg">
<rect width="57" height="57" rx="8.90625" fill="url(#paint0_linear_1801_1063)"/>
<rect x="23.4995" y="43.407" width="1.11111" height="11.3444" rx="0.555556" transform="rotate(-90.1132 23.4995 43.407)" fill="white"/>
<rect x="17.7795" y="47.0073" width="1.11111" height="22.7843" rx="0.555556" transform="rotate(-90.1132 17.7795 47.0073)" fill="white"/>
<path d="M18.3867 26.7188H21.1995C21.8548 26.7188 22.4577 27.0795 22.7684 27.6565C24.3586 30.6097 25.5077 32.7437 26.9291 35.3835C27.6016 36.6325 29.3936 36.6333 30.0662 35.3842L34.2278 27.6555C34.5385 27.0785 35.1408 26.7188 35.7961 26.7188H39.3867" stroke="white" stroke-linecap="round"/>
<path d="M14.7891 32.9014L18.2486 26.8473C18.2926 26.7702 18.4047 26.7733 18.4444 26.8527L21.4688 32.9014" stroke="white" stroke-width="0.890625" stroke-linecap="round"/>
<path d="M15.7657 35.2722C15.2415 34.727 14.9092 34.0182 14.817 33.2596L18.1292 33.2709L21.4414 33.2823C21.3441 34.0402 21.007 34.7467 20.479 35.2883C19.8492 35.9344 19 36.2928 18.1189 36.2898C17.2378 36.2868 16.3911 35.9225 15.7657 35.2722Z" stroke="white" stroke-width="0.890625"/>
<path d="M35.9021 32.9014L39.3616 26.8473C39.4056 26.7702 39.5178 26.7733 39.5574 26.8527L42.5818 32.9014" stroke="white" stroke-width="0.890625" stroke-linecap="round"/>
<path d="M36.8768 35.2722C36.3525 34.727 36.0203 34.0182 35.9281 33.2596L39.2403 33.2709L42.5525 33.2823C42.4552 34.0402 42.1181 34.7467 41.5901 35.2883C40.9603 35.9344 40.1111 36.2928 39.23 36.2898C38.3489 36.2868 37.5021 35.9225 36.8768 35.2722Z" stroke="white" stroke-width="0.890625"/>
<path d="M37.7969 17.4941C37.7969 15.3109 36.027 13.541 33.8438 13.541H24.4922C22.5549 13.541 20.9844 15.1115 20.9844 17.0488V21.4473H33.8438C36.027 21.4473 37.7969 19.6774 37.7969 17.4941Z" stroke="white"/>
<path d="M25.8281 18.7029C26.32 18.7029 26.7188 18.3041 26.7188 17.8123C26.7188 17.3204 26.32 16.9216 25.8281 16.9216C25.3362 16.9216 24.9375 17.3204 24.9375 17.8123C24.9375 18.3041 25.3362 18.7029 25.8281 18.7029Z" fill="white"/>
<path d="M32.0625 18.7029C32.5544 18.7029 32.9531 18.3041 32.9531 17.8123C32.9531 17.3204 32.5544 16.9216 32.0625 16.9216C31.5706 16.9216 31.1719 17.3204 31.1719 17.8123C31.1719 18.3041 31.5706 18.7029 32.0625 18.7029Z" fill="white"/>
<defs>
<linearGradient id="paint0_linear_1801_1063" x1="28.5" y1="-26.2734" x2="28.5" y2="92.625" gradientUnits="userSpaceOnUse">
<stop stop-color="#49EADD"/>
<stop offset="1" stop-color="#127483"/>
</linearGradient>
</defs>
</svg>
