<svg width="201" height="63" viewBox="0 0 201 63" fill="none" xmlns="http://www.w3.org/2000/svg">
<g id="App store">
<rect id="Rectangle" x="1" y="1" width="198.676" height="61.2505" rx="7.10596" fill="white" stroke="#E4E4E4" stroke-width="0.888245"/>
<path id="Downloadonthe" fill-rule="evenodd" clip-rule="evenodd" d="M99.0196 22.96H97.8988V14.1272H99.0196V22.96ZM66.4586 22.9599H69.3917C70.5283 22.9599 71.4861 22.5797 72.2651 21.8192C73.044 21.0588 73.4335 20.0035 73.4335 18.6533C73.4335 17.2951 73.048 16.2316 72.277 15.463C71.506 14.6944 70.5522 14.3101 69.4155 14.3101H66.4586V22.9599ZM69.3559 21.8987H67.6271V15.3717H69.3797C70.2064 15.3717 70.888 15.6564 71.4245 16.2257C71.961 16.7951 72.2293 17.6043 72.2293 18.6535C72.2293 19.6946 71.9571 20.4957 71.4126 21.0569C70.8681 21.6181 70.1825 21.8987 69.3559 21.8987ZM76.104 21.5693C76.4537 21.9353 76.879 22.1183 77.3797 22.1183C77.8805 22.1183 78.3037 21.9332 78.6495 21.5632C78.9953 21.1931 79.1682 20.6787 79.1682 20.0199C79.1682 19.3692 78.9953 18.8588 78.6495 18.4888C78.3037 18.1187 77.8805 17.9337 77.3797 17.9337C76.879 17.9337 76.4557 18.1187 76.1099 18.4888C75.7642 18.8588 75.5913 19.3692 75.5913 20.0199C75.5913 20.6787 75.7622 21.1951 76.104 21.5693ZM77.3791 16.9087C76.5286 16.9087 75.8252 17.2056 75.2688 17.7993C74.7203 18.3849 74.4461 19.125 74.4461 20.0197C74.4461 20.9225 74.7203 21.6687 75.2688 22.2584C75.8172 22.8481 76.5207 23.1429 77.3791 23.1429C78.2376 23.1429 78.941 22.8481 79.4895 22.2584C80.0379 21.6687 80.3122 20.9225 80.3122 20.0197C80.3122 19.125 80.0359 18.3829 79.4835 17.7932C78.9311 17.2035 78.2296 16.9087 77.3791 16.9087ZM84.9752 17.0916H86.1317L87.6221 21.508L88.8859 17.0916H90.0663L88.2063 22.9598H87.0498L85.5236 18.4946L84.0333 22.9598H82.8529L80.9691 17.0916H82.1971L83.4848 21.508L84.9752 17.0916ZM92.3197 22.96V19.5684C92.3197 19.1048 92.4369 18.7205 92.6714 18.4155C92.9059 18.1105 93.2337 17.958 93.655 17.958C94.5453 17.958 94.9904 18.45 94.9904 19.4342V22.96H96.1111V19.239C96.1111 18.5558 95.9343 17.9986 95.5806 17.5676C95.2269 17.1365 94.7201 16.921 94.0604 16.921C93.2655 16.921 92.6773 17.2585 92.2958 17.9336V17.0918H91.1989V22.96H92.3197ZM103.384 22.1183C102.884 22.1183 102.458 21.9353 102.109 21.5693C101.767 21.1951 101.596 20.6787 101.596 20.0199C101.596 19.3692 101.769 18.8588 102.115 18.4888C102.46 18.1187 102.884 17.9337 103.384 17.9337C103.885 17.9337 104.308 18.1187 104.654 18.4888C105 18.8588 105.173 19.3692 105.173 20.0199C105.173 20.6787 105 21.1931 104.654 21.5632C104.308 21.9332 103.885 22.1183 103.384 22.1183ZM101.273 17.7993C101.83 17.2056 102.533 16.9087 103.384 16.9087C104.234 16.9087 104.936 17.2035 105.488 17.7932C106.041 18.3829 106.317 19.125 106.317 20.0197C106.317 20.9225 106.043 21.6687 105.494 22.2584C104.946 22.8481 104.242 23.1429 103.384 23.1429C102.525 23.1429 101.822 22.8481 101.273 22.2584C100.725 21.6687 100.451 20.9225 100.451 20.0197C100.451 19.125 100.725 18.3849 101.273 17.7993ZM107.867 20.1722C107.549 20.4772 107.39 20.8818 107.39 21.3861C107.39 21.866 107.569 22.2787 107.927 22.6244C108.284 22.9701 108.745 23.1429 109.31 23.1429C109.771 23.1429 110.154 23.0453 110.46 22.8501C110.766 22.6549 110.999 22.4272 111.158 22.1669C111.158 22.4516 111.178 22.7159 111.217 22.9599H112.314C112.267 22.6671 112.243 22.3458 112.243 21.9961V19.0559C112.243 18.4296 112.048 17.9152 111.659 17.5126C111.269 17.11 110.669 16.9087 109.858 16.9087C109.238 16.9087 108.706 17.0856 108.261 17.4394C107.815 17.7932 107.565 18.2507 107.509 18.8119L108.583 19.0681C108.622 18.7102 108.753 18.4235 108.976 18.208C109.199 17.9925 109.501 17.8847 109.882 17.8847C110.295 17.8847 110.605 17.9823 110.812 18.1775C111.019 18.3727 111.122 18.6248 111.122 18.9339C111.122 19.186 110.975 19.3324 110.681 19.3731L109.131 19.6049C108.606 19.6781 108.185 19.8672 107.867 20.1722ZM109.464 22.1792C109.965 22.1792 110.366 22.0409 110.668 21.7644C110.97 21.4879 111.121 21.0487 111.121 20.4468V20.1784L109.369 20.4468C109.114 20.4875 108.912 20.581 108.761 20.7274C108.61 20.8738 108.534 21.0731 108.534 21.3252C108.534 21.5529 108.619 21.7522 108.79 21.923C108.961 22.0938 109.186 22.1792 109.464 22.1792ZM115.099 21.5203C114.801 21.1299 114.652 20.6257 114.652 20.0075C114.652 19.3975 114.807 18.9014 115.117 18.5191C115.427 18.1369 115.836 17.9457 116.345 17.9457C116.853 17.9457 117.255 18.1328 117.549 18.5069C117.843 18.8811 117.99 19.3731 117.99 19.9831C117.99 20.6013 117.839 21.1096 117.537 21.5081C117.235 21.9067 116.834 22.1059 116.333 22.1059C115.808 22.1059 115.397 21.9107 115.099 21.5203ZM118.006 22.3858L118.003 22.0694C117.852 22.3703 117.623 22.6204 117.317 22.8197C117.011 23.019 116.647 23.1186 116.226 23.1186C115.408 23.1186 114.75 22.8238 114.253 22.2341C113.756 21.6444 113.508 20.9023 113.508 20.0076C113.508 19.1536 113.762 18.4277 114.271 17.8299C114.78 17.2321 115.431 16.9332 116.226 16.9332C116.695 16.9332 117.077 17.0288 117.371 17.2199C117.665 17.411 117.868 17.6449 117.979 17.9214V14.1272H119.088V21.8742C119.088 22.2727 119.108 22.6347 119.147 22.96H118.062C118.033 22.7892 118.014 22.5978 118.006 22.3858ZM126.432 22.1183C125.931 22.1183 125.506 21.9353 125.156 21.5693C124.814 21.1951 124.643 20.6787 124.643 20.0199C124.643 19.3692 124.816 18.8588 125.162 18.4888C125.508 18.1187 125.931 17.9337 126.432 17.9337C126.932 17.9337 127.356 18.1187 127.701 18.4888C128.047 18.8588 128.22 19.3692 128.22 20.0199C128.22 20.6787 128.047 21.1931 127.701 21.5632C127.356 21.9332 126.932 22.1183 126.432 22.1183ZM124.321 17.7993C124.877 17.2056 125.581 16.9087 126.431 16.9087C127.282 16.9087 127.983 17.2035 128.535 17.7932C129.088 18.3829 129.364 19.125 129.364 20.0197C129.364 20.9225 129.09 21.6687 128.541 22.2584C127.993 22.8481 127.289 23.1429 126.431 23.1429C125.573 23.1429 124.869 22.8481 124.321 22.2584C123.772 21.6687 123.498 20.9225 123.498 20.0197C123.498 19.125 123.772 18.3849 124.321 17.7993ZM131.917 22.96V19.5684C131.917 19.1048 132.034 18.7205 132.269 18.4155C132.503 18.1105 132.831 17.958 133.252 17.958C134.143 17.958 134.588 18.45 134.588 19.4342V22.96H135.709V19.239C135.709 18.5558 135.532 17.9986 135.178 17.5676C134.824 17.1365 134.318 16.921 133.658 16.921C132.863 16.921 132.275 17.2585 131.893 17.9336V17.0918H130.796V22.96H131.917ZM141.979 15.2373V17.0917H143.219V18.1287H141.979V21.1787C141.979 21.4552 142.041 21.6586 142.164 21.7887C142.287 21.9188 142.492 21.9839 142.778 21.9839C142.945 21.9839 143.092 21.9676 143.219 21.9351V22.9111C143.029 22.9843 142.774 23.0209 142.456 23.0209C141.964 23.0209 141.574 22.8745 141.288 22.5817C141.002 22.2889 140.859 21.8782 140.859 21.3495V18.1287H139.762V17.0917H140.072C140.366 17.0917 140.586 17.0083 140.733 16.8416C140.881 16.6749 140.954 16.4573 140.954 16.1889V15.2373H141.979ZM145.83 22.96V19.5074C145.846 19.0519 145.97 18.6798 146.2 18.3911C146.431 18.1024 146.752 17.958 147.166 17.958C148.056 17.958 148.501 18.4501 148.501 19.4342V22.96H149.622V19.239C149.622 18.5558 149.445 17.9987 149.091 17.5676C148.738 17.1365 148.231 16.921 147.571 16.921C146.792 16.921 146.212 17.2057 145.83 17.775V14.1272H144.71V22.96H145.83ZM152.135 19.422H155.271C155.255 18.9828 155.112 18.6229 154.842 18.3423C154.572 18.0617 154.19 17.9214 153.697 17.9214C153.252 17.9214 152.887 18.0698 152.6 18.3667C152.314 18.6636 152.159 19.0153 152.135 19.422ZM156.404 21.2885L155.439 20.9469C155.184 21.7358 154.648 22.1303 153.829 22.1303C153.344 22.1303 152.937 21.9636 152.607 21.6301C152.277 21.2966 152.108 20.8696 152.1 20.3491H156.416C156.432 20.2515 156.44 20.1295 156.44 19.9831C156.44 19.0478 156.198 18.3015 155.713 17.7444C155.228 17.1873 154.552 16.9087 153.686 16.9087C152.939 16.9087 152.295 17.2015 151.754 17.7871C151.214 18.3727 150.944 19.1128 150.944 20.0075C150.944 20.9672 151.224 21.7297 151.784 22.295C152.345 22.8603 153.026 23.1429 153.829 23.1429C154.473 23.1429 155.021 22.9701 155.474 22.6244C155.927 22.2787 156.237 21.8334 156.404 21.2885Z" fill="black"/>
<path id="AppStore" fill-rule="evenodd" clip-rule="evenodd" d="M76.2576 46.1401H78.7567L73.4915 32.3004H70.8399L65.5747 46.1401H67.9974L69.2565 42.6655H74.9795L76.2576 46.1401ZM72.1183 34.8382L74.1786 40.499H70.058L72.1183 34.8382ZM82.5722 49.849V45.0666C83.0491 45.7888 84.0602 46.3744 85.3956 46.3744C88.0663 46.3744 89.7641 44.2272 89.7641 41.3773C89.7641 38.5664 88.2189 36.4192 85.4719 36.4192C84.0411 36.4192 82.9728 37.1024 82.515 37.9222V36.6339H80.3784V49.849H82.5722ZM87.5518 41.377C87.5518 43.1924 86.5216 44.3636 85.0527 44.3636C83.6029 44.3636 82.5537 43.1924 82.5537 41.377C82.5537 39.6007 83.6029 38.4295 85.0527 38.4295C86.5407 38.4295 87.5518 39.6007 87.5518 41.377ZM94.0952 49.849V45.0666C94.5721 45.7888 95.5832 46.3744 96.9185 46.3744C99.5893 46.3744 101.287 44.2272 101.287 41.3773C101.287 38.5664 99.7419 36.4192 96.9948 36.4192C95.5641 36.4192 94.4958 37.1024 94.0379 37.9222V36.6339H91.9014V49.849H94.0952ZM99.0733 41.377C99.0733 43.1924 98.0432 44.3636 96.5743 44.3636C95.1244 44.3636 94.0752 43.1924 94.0752 41.377C94.0752 39.6007 95.1244 38.4295 96.5743 38.4295C98.0622 38.4295 99.0733 39.6007 99.0733 41.377ZM117.235 35.5407C116.929 33.9986 115.689 32.0076 112.504 32.0076C109.985 32.0076 107.906 33.9205 107.906 36.2434C107.906 38.3125 109.28 39.6985 111.34 40.1279L113.248 40.5378C114.411 40.7916 115.06 41.5138 115.06 42.4117C115.06 43.4853 114.22 44.3247 112.599 44.3247C110.653 44.3247 109.642 42.9973 109.509 41.5529L107.372 42.1775C107.582 44.1685 109.165 46.4329 112.599 46.4329C115.689 46.4329 117.387 44.3833 117.387 42.2361C117.387 40.284 116.109 38.742 113.725 38.254L111.779 37.844C110.729 37.6098 110.195 36.9461 110.195 36.0677C110.195 35.0136 111.149 34.0767 112.523 34.0767C114.335 34.0767 115.041 35.3455 115.174 36.2044L117.235 35.5407ZM122.384 33.7252H120.381V35.1502C120.381 35.9896 119.942 36.6337 118.95 36.6337H118.473V38.6443H120.19V43.4267C120.19 45.203 121.258 46.2571 122.975 46.2571C123.776 46.2571 124.196 46.1009 124.33 46.0424V44.1684L124.085 44.2074C123.934 44.2274 123.741 44.2465 123.566 44.2465C122.746 44.2465 122.384 43.8952 122.384 43.0558V38.6443H124.31V36.6337H122.384V33.7252ZM130.628 44.4028C129.273 44.4028 128.033 43.3487 128.033 41.3772C128.033 39.4057 129.273 38.3906 130.628 38.3906C132.001 38.3906 133.222 39.4057 133.222 41.3772C133.222 43.3683 132.001 44.4028 130.628 44.4028ZM130.625 36.3409C127.859 36.3409 125.818 38.4686 125.818 41.3771C125.818 44.3051 127.859 46.4327 130.625 46.4327C133.41 46.4327 135.452 44.3051 135.452 41.3771C135.452 38.4686 133.41 36.3409 130.625 36.3409ZM143.027 36.5754C142.932 36.5558 142.703 36.5168 142.436 36.5168C141.215 36.5168 140.185 37.1219 139.746 38.1565V36.6339H137.59V46.1402H139.803V41.6115C139.803 39.8352 140.585 38.8202 142.302 38.8202C142.531 38.8202 142.779 38.8397 143.027 38.8787V36.5754ZM146.383 40.3426C146.46 39.3276 147.261 38.2345 148.653 38.2345C150.18 38.2345 150.904 39.23 150.943 40.3426H146.383ZM151.19 42.8215L153.059 43.4267C152.563 45.0859 151.094 46.4327 148.862 46.4327C146.344 46.4327 144.112 44.5588 144.112 41.338C144.112 38.3319 146.287 36.3409 148.633 36.3409C151.495 36.3409 153.174 38.2734 153.174 41.2795C153.174 41.6503 153.135 41.9627 153.116 42.0017H146.325C146.382 43.4462 147.489 44.4807 148.862 44.4807C150.198 44.4807 150.884 43.7585 151.19 42.8215Z" fill="black"/>
<g id="apple">
<path id="Shape" fill-rule="evenodd" clip-rule="evenodd" d="M38.4294 18.7361C39.4658 17.5928 40.167 16.0045 39.9755 14.4202C38.4811 14.4751 36.6704 15.3236 35.5997 16.4664C34.6373 17.4794 33.7963 19.0969 34.0209 20.6494C35.6892 20.7668 37.391 19.878 38.4294 18.7361ZM41.6096 29.6727C41.5773 26.1215 44.3374 24.4174 44.4613 24.3337C42.9101 21.9235 40.4928 21.5932 39.6329 21.5564C37.5766 21.3339 35.6205 22.8406 34.5761 22.8406C33.5354 22.8406 31.9257 21.5861 30.2196 21.6194C27.9774 21.657 25.9108 23.0029 24.7579 25.136C22.4284 29.4263 24.1604 35.7836 26.4313 39.263C27.5408 40.967 28.8627 42.8781 30.5985 42.8085C32.2724 42.7402 32.9043 41.6603 34.9262 41.6603C36.9468 41.6603 37.5155 42.8085 39.284 42.7739C41.0835 42.7402 42.2239 41.0375 43.3256 39.329C44.5985 37.3542 45.1225 35.4409 45.1543 35.3438C45.1139 35.3225 41.6462 33.9146 41.6096 29.6727Z" fill="black"/>
</g>
</g>
</svg>
