<svg width="163" height="44" viewBox="0 0 163 44" fill="none" xmlns="http://www.w3.org/2000/svg">
<path fill-rule="evenodd" clip-rule="evenodd" d="M18.1715 5.23572C19.4458 3.84881 20.3081 1.92199 20.0727 0C18.235 0.0666834 16.0085 1.09597 14.6919 2.48234C13.5086 3.71114 12.4744 5.67346 12.7505 7.55673C14.8019 7.69924 16.8946 6.62101 18.1715 5.23572ZM22.0819 18.5032C22.0422 14.1952 25.4361 12.128 25.5885 12.0263C23.681 9.10248 20.7087 8.70185 19.6512 8.65721C17.1227 8.38725 14.7174 10.2151 13.4331 10.2151C12.1535 10.2151 10.174 8.69324 8.07612 8.73357C5.31908 8.77928 2.77786 10.412 1.3602 12.9997C-1.50422 18.2042 0.625446 25.9164 3.41793 30.1373C4.78216 32.2045 6.40772 34.5228 8.54215 34.4384C10.6004 34.3556 11.3775 33.0456 13.8637 33.0456C16.3483 33.0456 17.0476 34.4384 19.2222 34.3964C21.435 34.3556 22.8373 32.29 24.192 30.2174C25.7572 27.8217 26.4015 25.5007 26.4407 25.3829C26.391 25.3571 22.1269 23.6491 22.0819 18.5032Z" fill="black"/>
<path fill-rule="evenodd" clip-rule="evenodd" d="M91.4793 10.7152H90.1012V0H91.4793V10.7152ZM51.4407 10.7151H55.0473C56.445 10.7151 57.6227 10.2538 58.5806 9.3313C59.5384 8.40876 60.0174 7.12857 60.0174 5.4907C60.0174 3.84296 59.5433 2.5529 58.5953 1.6205C57.6472 0.688093 56.4743 0.221898 55.0766 0.221898H51.4407V10.7151ZM55.0033 9.42771H52.8775V1.50971H55.0326C56.0491 1.50971 56.8873 1.85504 57.547 2.54571C58.2067 3.23638 58.5366 4.21811 58.5366 5.49091C58.5366 6.75385 58.2019 7.72571 57.5323 8.40651C56.8628 9.08732 56.0198 9.42771 55.0033 9.42771ZM63.301 9.02817C63.7311 9.47218 64.254 9.69417 64.8697 9.69417C65.4855 9.69417 66.0059 9.46971 66.4311 9.02077C66.8563 8.57184 67.0689 7.94778 67.0689 7.14857C67.0689 6.35924 66.8563 5.74011 66.4311 5.29117C66.0059 4.84224 65.4855 4.61777 64.8697 4.61777C64.254 4.61777 63.7335 4.84224 63.3083 5.29117C62.8832 5.74011 62.6706 6.35924 62.6706 7.14857C62.6706 7.94778 62.8807 8.5743 63.301 9.02817ZM64.869 3.37438C63.8232 3.37438 62.9582 3.73451 62.274 4.45478C61.5996 5.16518 61.2624 6.06304 61.2624 7.14838C61.2624 8.24359 61.5996 9.14884 62.274 9.86418C62.9484 10.5795 63.8134 10.9372 64.869 10.9372C65.9246 10.9372 66.7896 10.5795 67.464 9.86418C68.1384 9.14884 68.4756 8.24359 68.4756 7.14838C68.4756 6.06304 68.136 5.16272 67.4567 4.44738C66.7774 3.73204 65.9148 3.37438 64.869 3.37438ZM74.2096 3.59628H75.6317L77.4644 8.95388L79.0184 3.59628H80.4699L78.1828 10.7151H76.7606L74.884 5.29828L73.0514 10.7151H71.6L69.2835 3.59628H70.7936L72.377 8.95388L74.2096 3.59628ZM83.2408 10.7153V6.60086C83.2408 6.03846 83.3849 5.57226 83.6733 5.20226C83.9616 4.83226 84.3648 4.64726 84.8828 4.64726C85.9775 4.64726 86.5248 5.24419 86.5248 6.43806V10.7153H87.903V6.20126C87.903 5.37245 87.6855 4.69659 87.2505 4.17366C86.8156 3.65072 86.1925 3.38926 85.3813 3.38926C84.4039 3.38926 83.6806 3.79872 83.2114 4.61766V3.59646H81.8626V10.7153H83.2408ZM96.8464 9.69417C96.2306 9.69417 95.7077 9.47218 95.2776 9.02817C94.8574 8.5743 94.6472 7.94778 94.6472 7.14857C94.6472 6.35924 94.8598 5.74011 95.285 5.29117C95.7101 4.84224 96.2306 4.61777 96.8464 4.61777C97.4621 4.61777 97.9826 4.84224 98.4078 5.29117C98.8329 5.74011 99.0455 6.35924 99.0455 7.14857C99.0455 7.94778 98.8329 8.57184 98.4078 9.02077C97.9826 9.46971 97.4621 9.69417 96.8464 9.69417ZM94.2507 4.45478C94.9348 3.73451 95.7998 3.37438 96.8457 3.37438C97.8915 3.37438 98.754 3.73204 99.4333 4.44738C100.113 5.16272 100.452 6.06304 100.452 7.14838C100.452 8.24359 100.115 9.14884 99.4407 9.86418C98.7663 10.5795 97.9013 10.9372 96.8457 10.9372C95.7901 10.9372 94.9251 10.5795 94.2507 9.86418C93.5763 9.14884 93.2391 8.24359 93.2391 7.14838C93.2391 6.06304 93.5763 5.16518 94.2507 4.45478ZM102.359 7.33338C101.968 7.70338 101.772 8.19424 101.772 8.80598C101.772 9.38812 101.992 9.88884 102.432 10.3082C102.872 10.7275 103.439 10.9372 104.133 10.9372C104.7 10.9372 105.171 10.8188 105.547 10.582C105.924 10.3452 106.21 10.0689 106.405 9.75318C106.405 10.0985 106.43 10.4192 106.478 10.7152H107.827C107.769 10.36 107.739 9.97025 107.739 9.54598V5.97918C107.739 5.21944 107.5 4.59538 107.021 4.10698C106.542 3.61858 105.804 3.37438 104.807 3.37438C104.045 3.37438 103.39 3.58898 102.842 4.01818C102.295 4.44738 101.987 5.00238 101.919 5.68318L103.238 5.99398C103.287 5.55984 103.448 5.21205 103.722 4.95058C103.996 4.68911 104.367 4.55838 104.836 4.55838C105.345 4.55838 105.726 4.67678 105.98 4.91358C106.234 5.15038 106.361 5.45624 106.361 5.83118C106.361 6.13705 106.18 6.31465 105.819 6.36398L103.913 6.64518C103.268 6.73398 102.75 6.96338 102.359 7.33338ZM104.322 9.7679C104.938 9.7679 105.432 9.60017 105.803 9.2647C106.174 8.92923 106.36 8.39644 106.36 7.6663V7.3407L104.205 7.6663C103.892 7.71563 103.643 7.8291 103.457 8.0067C103.272 8.1843 103.179 8.42603 103.179 8.7319C103.179 9.00817 103.284 9.2499 103.494 9.4571C103.704 9.6643 103.98 9.7679 104.322 9.7679ZM111.251 8.96863C110.884 8.49502 110.701 7.8833 110.701 7.13343C110.701 6.39342 110.892 5.79156 111.273 5.32783C111.654 4.86409 112.158 4.63223 112.783 4.63223C113.409 4.63223 113.902 4.85916 114.264 5.31303C114.625 5.7669 114.806 6.36382 114.806 7.10383C114.806 7.8537 114.621 8.47036 114.249 8.95383C113.878 9.4373 113.384 9.67903 112.768 9.67903C112.123 9.67903 111.618 9.44223 111.251 8.96863ZM114.827 10.0187L114.822 9.6348C114.636 9.99987 114.355 10.3033 113.979 10.545C113.603 10.7867 113.155 10.9076 112.637 10.9076C111.631 10.9076 110.822 10.5499 110.211 9.8346C109.6 9.11926 109.295 8.21894 109.295 7.1336C109.295 6.09759 109.608 5.217 110.233 4.4918C110.859 3.7666 111.66 3.404 112.637 3.404C113.214 3.404 113.683 3.51993 114.045 3.7518C114.407 3.98367 114.656 4.26733 114.793 4.6028V0H116.156V9.398C116.156 9.88147 116.181 10.3205 116.229 10.7152H114.895C114.859 10.508 114.836 10.2758 114.827 10.0187ZM125.186 9.69417C124.571 9.69417 124.048 9.47218 123.618 9.02817C123.197 8.5743 122.987 7.94778 122.987 7.14857C122.987 6.35924 123.2 5.74011 123.625 5.29117C124.05 4.84224 124.571 4.61777 125.186 4.61777C125.802 4.61777 126.323 4.84224 126.748 5.29117C127.173 5.74011 127.386 6.35924 127.386 7.14857C127.386 7.94778 127.173 8.57184 126.748 9.02077C126.323 9.46971 125.802 9.69417 125.186 9.69417ZM122.591 4.45478C123.275 3.73451 124.14 3.37438 125.186 3.37438C126.232 3.37438 127.094 3.73204 127.773 4.44738C128.453 5.16272 128.792 6.06304 128.792 7.14838C128.792 8.24359 128.455 9.14884 127.781 9.86418C127.106 10.5795 126.241 10.9372 125.186 10.9372C124.13 10.9372 123.265 10.5795 122.591 9.86418C121.916 9.14884 121.579 8.24359 121.579 7.14838C121.579 6.06304 121.916 5.16518 122.591 4.45478ZM131.932 10.7153V6.60086C131.932 6.03846 132.076 5.57226 132.364 5.20226C132.653 4.83226 133.056 4.64726 133.574 4.64726C134.668 4.64726 135.216 5.24419 135.216 6.43806V10.7153H136.594V6.20126C136.594 5.37245 136.376 4.69659 135.941 4.17366C135.507 3.65072 134.883 3.38926 134.072 3.38926C133.095 3.38926 132.372 3.79872 131.902 4.61766V3.59646H130.554V10.7153H131.932ZM144.305 1.34669V3.59629H145.83V4.85429H144.305V8.55429C144.305 8.88976 144.381 9.13642 144.532 9.29429C144.684 9.45216 144.935 9.53109 145.287 9.53109C145.492 9.53109 145.673 9.51136 145.83 9.47189V10.6559C145.595 10.7447 145.282 10.7891 144.891 10.7891C144.285 10.7891 143.806 10.6115 143.455 10.2563C143.103 9.90109 142.927 9.40283 142.927 8.76149V4.85429H141.578V3.59629H141.959C142.321 3.59629 142.592 3.49516 142.773 3.29289C142.954 3.09062 143.044 2.82669 143.044 2.50109V1.34669H144.305ZM149.04 10.7152V6.5268C149.06 5.97426 149.211 5.52287 149.495 5.1726C149.778 4.82233 150.174 4.6472 150.682 4.6472C151.777 4.6472 152.324 5.24413 152.324 6.438V10.7152H153.702V6.2012C153.702 5.3724 153.485 4.69654 153.05 4.1736C152.615 3.65066 151.992 3.3892 151.181 3.3892C150.223 3.3892 149.509 3.73453 149.04 4.4252V0H147.662V10.7152H149.04ZM156.793 6.4233H160.649C160.629 5.89049 160.454 5.4539 160.121 5.1135C159.789 4.77309 159.32 4.6029 158.714 4.6029C158.166 4.6029 157.717 4.78296 157.365 5.1431C157.013 5.50323 156.822 5.92996 156.793 6.4233ZM162.042 8.68758L160.855 8.27318C160.542 9.23025 159.882 9.70878 158.876 9.70878C158.279 9.70878 157.779 9.50652 157.373 9.10198C156.967 8.69744 156.76 8.17945 156.75 7.54798H162.057C162.077 7.42958 162.086 7.28158 162.086 7.10398C162.086 5.96931 161.788 5.06405 161.192 4.38818C160.596 3.71231 159.765 3.37438 158.7 3.37438C157.781 3.37438 156.989 3.72958 156.325 4.43998C155.66 5.15038 155.328 6.04824 155.328 7.13358C155.328 8.29785 155.672 9.22284 156.361 9.90858C157.05 10.5943 157.889 10.9372 158.876 10.9372C159.667 10.9372 160.342 10.7275 160.899 10.3082C161.456 9.88884 161.837 9.34865 162.042 8.68758Z" fill="black"/>
<path fill-rule="evenodd" clip-rule="evenodd" d="M64.5769 39.0815H67.6499L61.1756 22.2924H57.915L51.4407 39.0815H54.4198L55.968 34.8665H63.0053L64.5769 39.0815ZM59.4871 25.3709L62.0206 32.2381H56.9537L59.4871 25.3709ZM72.3416 43.5808V37.7792C72.9281 38.6553 74.1713 39.3657 75.8133 39.3657C79.0974 39.3657 81.1851 36.761 81.1851 33.3037C81.1851 29.8938 79.2851 27.289 75.9072 27.289C74.1478 27.289 72.8342 28.1178 72.2712 29.1123V27.5494H69.644V43.5808H72.3416ZM78.4647 33.3034C78.4647 35.5056 77.198 36.9264 75.3918 36.9264C73.609 36.9264 72.3188 35.5056 72.3188 33.3034C72.3188 31.1485 73.609 29.7277 75.3918 29.7277C77.2215 29.7277 78.4647 31.1485 78.4647 33.3034ZM86.5108 43.5808V37.7792C87.0972 38.6553 88.3405 39.3657 89.9825 39.3657C93.2666 39.3657 95.3543 36.761 95.3543 33.3037C95.3543 29.8938 93.4542 27.289 90.0763 27.289C88.317 27.289 87.0034 28.1178 86.4404 29.1123V27.5494H83.8132V43.5808H86.5108ZM92.6322 33.3034C92.6322 35.5056 91.3655 36.9264 89.5592 36.9264C87.7765 36.9264 86.4863 35.5056 86.4863 33.3034C86.4863 31.1485 87.7765 29.7277 89.5592 29.7277C91.3889 29.7277 92.6322 31.1485 92.6322 33.3034ZM114.964 26.2233C114.589 24.3526 113.064 21.9373 109.147 21.9373C106.05 21.9373 103.494 24.2579 103.494 27.0758C103.494 29.5859 105.183 31.2672 107.716 31.7881L110.062 32.2854C111.493 32.5933 112.29 33.4694 112.29 34.5587C112.29 35.8611 111.258 36.8793 109.264 36.8793C106.871 36.8793 105.628 35.2691 105.464 33.5168L102.837 34.2745C103.095 36.6899 105.042 39.4368 109.264 39.4368C113.064 39.4368 115.152 36.9504 115.152 34.3456C115.152 31.9776 113.58 30.1069 110.648 29.5149L108.255 29.0176C106.965 28.7334 106.309 27.9283 106.309 26.8627C106.309 25.584 107.481 24.4473 109.17 24.4473C111.399 24.4473 112.267 25.9865 112.431 27.0285L114.964 26.2233ZM121.296 24.0211H118.833V25.7497C118.833 26.7679 118.293 27.5494 117.074 27.5494H116.487V29.9884H118.598V35.79C118.598 37.9449 119.912 39.2236 122.023 39.2236C123.008 39.2236 123.524 39.0342 123.689 38.9631V36.6899L123.388 36.7371C123.202 36.7614 122.965 36.7846 122.75 36.7846C121.742 36.7846 121.296 36.3583 121.296 35.3401V29.9884H123.665V27.5494H121.296V24.0211ZM131.433 36.974C129.767 36.974 128.243 35.6952 128.243 33.3036C128.243 30.9119 129.767 29.6805 131.433 29.6805C133.122 29.6805 134.623 30.9119 134.623 33.3036C134.623 35.7189 133.122 36.974 131.433 36.974ZM131.43 27.1942C128.029 27.1942 125.519 29.7753 125.519 33.3036C125.519 36.8556 128.029 39.4367 131.43 39.4367C134.855 39.4367 137.365 36.8556 137.365 33.3036C137.365 29.7753 134.855 27.1942 131.43 27.1942ZM146.68 27.4784C146.563 27.4547 146.281 27.4073 145.953 27.4073C144.452 27.4073 143.185 28.1414 142.645 29.3965V27.5494H139.995V39.0816H142.716V33.5878C142.716 31.4329 143.677 30.2016 145.789 30.2016C146.07 30.2016 146.375 30.2253 146.68 30.2726V27.4784ZM150.807 32.0486C150.901 30.8172 151.886 29.4911 153.598 29.4911C155.475 29.4911 156.366 30.6988 156.413 32.0486H150.807ZM156.717 35.0559L159.016 35.79C158.406 37.8028 156.6 39.4367 153.855 39.4367C150.759 39.4367 148.014 37.1634 148.014 33.2562C148.014 29.6095 150.688 27.1942 153.574 27.1942C157.092 27.1942 159.156 29.5385 159.156 33.1852C159.156 33.6351 159.11 34.014 159.086 34.0614H150.735C150.806 35.8137 152.166 37.0687 153.855 37.0687C155.497 37.0687 156.342 36.1926 156.717 35.0559Z" fill="black"/>
</svg>
