<svg width="91" height="27" viewBox="0 0 91 27" fill="none" xmlns="http://www.w3.org/2000/svg">
<path d="M90.1238 23.5017C90.1238 24.8873 88.978 26.0096 87.5609 26.0096H3.68999C2.27353 26.0096 1.12378 24.8873 1.12378 23.5017V3.50191C1.12378 2.11699 2.27353 0.990723 3.68999 0.990723H87.5602C88.978 0.990723 90.1231 2.11699 90.1231 3.50191L90.1238 23.5017Z" fill="black"/>
<path d="M87.2904 1.02081C88.8338 1.02081 90.0896 2.24525 90.0896 3.75V23.25C90.0896 24.7548 88.8338 25.9792 87.2904 25.9792H3.95711C2.41378 25.9792 1.15795 24.7548 1.15795 23.25V3.75C1.15795 2.24525 2.41378 1.02081 3.95711 1.02081H87.2904ZM87.2904 0.500001H3.95711C2.12461 0.500001 0.623779 1.96331 0.623779 3.75V23.25C0.623779 25.0367 2.12461 26.5 3.95711 26.5H87.2904C89.1229 26.5 90.6238 25.0367 90.6238 23.25V3.75C90.6238 1.96331 89.1229 0.500001 87.2904 0.500001Z" fill="#A6A6A6"/>
<path d="M20.709 13.3596C20.6897 11.2646 22.4683 10.2454 22.5497 10.198C21.5423 8.76601 19.981 8.57036 19.4323 8.55476C18.121 8.42021 16.849 9.31981 16.181 9.31981C15.4997 9.31981 14.471 8.56776 13.3623 8.58986C11.9357 8.61131 10.601 9.41666 9.86901 10.6673C8.35834 13.2172 9.48501 16.9645 10.9323 19.0256C11.6563 20.0351 12.5023 21.1622 13.6097 21.1225C14.693 21.079 15.0977 20.4491 16.405 20.4491C17.7003 20.4491 18.0803 21.1225 19.2097 21.0972C20.3723 21.079 21.1043 20.0832 21.803 19.0646C22.6397 17.9076 22.9757 16.7682 22.989 16.7097C22.9617 16.7006 20.731 15.8705 20.709 13.3596Z" fill="white"/>
<path d="M18.5757 7.19887C19.1583 6.48842 19.557 5.52187 19.4463 4.54102C18.603 4.57742 17.5483 5.10977 16.941 5.80462C16.4037 6.41692 15.9237 7.42052 16.0477 8.36432C16.995 8.43322 17.9677 7.89827 18.5757 7.19887Z" fill="white"/>
<path d="M36.3872 20.9776H34.8732L34.0439 18.4367H31.1612L30.3712 20.9776H28.8972L31.7532 12.3274H33.5172L36.3872 20.9776ZM33.7939 17.3707L33.0439 15.112C32.9645 14.8812 32.8159 14.3378 32.5965 13.4824H32.5699C32.4825 13.8503 32.3419 14.3937 32.1485 15.112L31.4119 17.3707H33.7939Z" fill="white"/>
<path d="M43.7317 17.7824C43.7317 18.8432 43.4377 19.6817 42.8497 20.2972C42.323 20.8452 41.669 21.1188 40.8884 21.1188C40.0457 21.1188 39.4404 20.8237 39.0717 20.2335H39.045V23.5193H37.6237V16.7937C37.6237 16.1268 37.6057 15.4424 37.571 14.7404H38.821L38.9004 15.729H38.927C39.401 14.9841 40.1204 14.6123 41.0857 14.6123C41.8404 14.6123 42.4704 14.9029 42.9744 15.4846C43.4797 16.067 43.7317 16.8327 43.7317 17.7824ZM42.2837 17.8331C42.2837 17.226 42.1437 16.7255 41.8624 16.3316C41.555 15.9208 41.1424 15.7154 40.625 15.7154C40.2744 15.7154 39.9557 15.8298 39.671 16.0553C39.3857 16.2828 39.199 16.5799 39.1117 16.9478C39.0677 17.1194 39.0457 17.2598 39.0457 17.3703V18.4103C39.0457 18.864 39.1884 19.2468 39.4737 19.5595C39.759 19.8721 40.1297 20.0281 40.5857 20.0281C41.121 20.0281 41.5377 19.8266 41.8357 19.4249C42.1344 19.0226 42.2837 18.4922 42.2837 17.8331Z" fill="white"/>
<path d="M51.0899 17.7824C51.0899 18.8432 50.7959 19.6817 50.2073 20.2972C49.6813 20.8452 49.0273 21.1188 48.2466 21.1188C47.4039 21.1188 46.7986 20.8237 46.4306 20.2335H46.4039V23.5193H44.9826V16.7937C44.9826 16.1268 44.9646 15.4424 44.9299 14.7404H46.1799L46.2593 15.729H46.2859C46.7593 14.9841 47.4786 14.6123 48.4446 14.6123C49.1986 14.6123 49.8286 14.9029 50.3339 15.4846C50.8373 16.067 51.0899 16.8327 51.0899 17.7824ZM49.6419 17.8331C49.6419 17.226 49.5013 16.7255 49.2199 16.3316C48.9126 15.9208 48.5013 15.7154 47.9833 15.7154C47.6319 15.7154 47.3139 15.8298 47.0286 16.0553C46.7433 16.2828 46.5573 16.5799 46.4699 16.9478C46.4266 17.1194 46.4039 17.2598 46.4039 17.3703V18.4103C46.4039 18.864 46.5466 19.2468 46.8306 19.5595C47.1159 19.8715 47.4866 20.0281 47.9439 20.0281C48.4793 20.0281 48.8959 19.8266 49.1939 19.4249C49.4926 19.0226 49.6419 18.4922 49.6419 17.8331Z" fill="white"/>
<path d="M59.3163 18.5518C59.3163 19.2876 59.0543 19.8863 58.5283 20.3484C57.9503 20.8535 57.1456 21.1057 56.1116 21.1057C55.1569 21.1057 54.3916 20.9263 53.8123 20.5668L54.1416 19.4118C54.7656 19.7797 55.4503 19.9643 56.1963 19.9643C56.7316 19.9643 57.1483 19.846 57.4476 19.6107C57.7456 19.3754 57.8943 19.0595 57.8943 18.6656C57.8943 18.3146 57.7716 18.0188 57.5256 17.779C57.2809 17.5391 56.8723 17.3162 56.3016 17.1101C54.7483 16.5453 53.9723 15.7178 53.9723 14.6297C53.9723 13.9186 54.2443 13.3356 54.7889 12.8819C55.3316 12.4275 56.0556 12.2007 56.9609 12.2007C57.7683 12.2007 58.4389 12.3378 58.9743 12.6115L58.6189 13.7412C58.1189 13.476 57.5536 13.3434 56.9209 13.3434C56.4209 13.3434 56.0303 13.4636 55.7503 13.7028C55.5136 13.9167 55.3949 14.1773 55.3949 14.4861C55.3949 14.828 55.5303 15.1107 55.8023 15.333C56.0389 15.5384 56.4689 15.7607 57.0929 16.0006C57.8563 16.3002 58.4169 16.6506 58.7776 17.0523C59.1369 17.4527 59.3163 17.9538 59.3163 18.5518Z" fill="white"/>
<path d="M64.0159 15.7802H62.4492V18.8085C62.4492 19.5788 62.7252 19.9636 63.2785 19.9636C63.5325 19.9636 63.7432 19.9421 63.9099 19.8992L63.9492 20.9516C63.6692 21.0536 63.3005 21.105 62.8439 21.105C62.2825 21.105 61.8439 20.9379 61.5272 20.6045C61.2119 20.2704 61.0532 19.7101 61.0532 18.9229V15.7789H60.1199V14.7389H61.0532V13.5968L62.4492 13.186V14.7389H64.0159V15.7802Z" fill="white"/>
<path d="M71.0846 17.8075C71.0846 18.7663 70.8033 19.5534 70.2419 20.169C69.6533 20.8027 68.8719 21.1186 67.8979 21.1186C66.9593 21.1186 66.2119 20.8151 65.6546 20.208C65.0973 19.6009 64.8186 18.8345 64.8186 17.9109C64.8186 16.9443 65.1053 16.1526 65.6806 15.5371C66.2546 14.9209 67.0293 14.6128 68.0033 14.6128C68.9419 14.6128 69.6973 14.9163 70.2673 15.5241C70.8126 16.1136 71.0846 16.8748 71.0846 17.8075ZM69.6099 17.8524C69.6099 17.2771 69.4839 16.7838 69.2286 16.3723C68.9306 15.8744 68.5046 15.6261 67.9526 15.6261C67.3813 15.6261 66.9473 15.8751 66.6493 16.3723C66.3939 16.7844 66.2679 17.2856 66.2679 17.8784C66.2679 18.4536 66.3939 18.947 66.6493 19.3578C66.9566 19.8557 67.3859 20.104 67.9399 20.104C68.4826 20.104 68.9086 19.8505 69.2159 19.3448C69.4779 18.9255 69.6099 18.427 69.6099 17.8524Z" fill="white"/>
<path d="M75.7047 15.9591C75.564 15.9338 75.414 15.9208 75.2567 15.9208C74.7567 15.9208 74.37 16.1047 74.098 16.4733C73.8613 16.7983 73.7427 17.2091 73.7427 17.705V20.9778H72.322L72.3353 16.7047C72.3353 15.9858 72.3173 15.3312 72.282 14.741H73.52L73.572 15.9344H73.6113C73.7613 15.5243 73.998 15.1941 74.322 14.9464C74.6387 14.7235 74.9807 14.6123 75.3493 14.6123C75.4807 14.6123 75.5993 14.6214 75.7047 14.6377V15.9591Z" fill="white"/>
<path d="M82.0611 17.5639C82.0611 17.8122 82.0444 18.0215 82.0091 18.1925H77.7451C77.7617 18.8087 77.9677 19.2799 78.3637 19.6049C78.7231 19.8955 79.1877 20.0411 79.7584 20.0411C80.3897 20.0411 80.9657 19.9429 81.4837 19.746L81.7064 20.708C81.1011 20.9654 80.3864 21.0934 79.5617 21.0934C78.5697 21.0934 77.7911 20.8087 77.2244 20.24C76.6591 19.6712 76.3757 18.9075 76.3757 17.9494C76.3757 17.0088 76.6391 16.2256 77.1664 15.6009C77.7184 14.934 78.4644 14.6006 79.4031 14.6006C80.3251 14.6006 81.0231 14.934 81.4971 15.6009C81.8724 16.1307 82.0611 16.7859 82.0611 17.5639ZM80.7057 17.2045C80.7151 16.7937 80.6224 16.4388 80.4297 16.1391C80.1837 15.7537 79.8057 15.5613 79.2971 15.5613C78.8324 15.5613 78.4544 15.7491 78.1657 16.1261C77.9291 16.4258 77.7884 16.7852 77.7451 17.2038H80.7057V17.2045Z" fill="white"/>
<path d="M33.3236 7.00566C33.3236 7.77071 33.0883 8.34661 32.6183 8.73336C32.183 9.09021 31.5643 9.26896 30.763 9.26896C30.3656 9.26896 30.0256 9.25206 29.741 9.21826V5.03811C30.1123 4.97961 30.5123 4.94971 30.9443 4.94971C31.7076 4.94971 32.283 5.11156 32.671 5.43526C33.1056 5.80121 33.3236 6.32446 33.3236 7.00566ZM32.587 7.02451C32.587 6.52856 32.4523 6.14831 32.183 5.88311C31.9136 5.61856 31.5203 5.48596 31.0023 5.48596C30.7823 5.48596 30.595 5.50026 30.4396 5.53016V8.70801C30.5256 8.72101 30.683 8.72686 30.9116 8.72686C31.4463 8.72686 31.859 8.58191 32.1496 8.29201C32.4403 8.00211 32.587 7.57961 32.587 7.02451Z" fill="white"/>
<path d="M37.2296 7.67384C37.2296 8.14509 37.0916 8.53119 36.8156 8.83409C36.5263 9.14544 36.1429 9.30079 35.6643 9.30079C35.2029 9.30079 34.8356 9.15194 34.5616 8.85294C34.2883 8.55459 34.1516 8.17824 34.1516 7.72454C34.1516 7.25004 34.2923 6.86069 34.5749 6.55844C34.8576 6.25619 35.2376 6.10474 35.7163 6.10474C36.1776 6.10474 36.5483 6.25359 36.8289 6.55194C37.0956 6.84184 37.2296 7.21624 37.2296 7.67384ZM36.5049 7.69594C36.5049 7.41319 36.4423 7.17074 36.3176 6.96859C36.1709 6.72419 35.9623 6.60199 35.6909 6.60199C35.4103 6.60199 35.1969 6.72419 35.0503 6.96859C34.9249 7.17074 34.8629 7.41709 34.8629 7.70829C34.8629 7.99104 34.9256 8.23349 35.0503 8.43564C35.2016 8.68004 35.4123 8.80224 35.6843 8.80224C35.9509 8.80224 36.1603 8.67809 36.3109 8.42914C36.4403 8.22309 36.5049 7.97869 36.5049 7.69594Z" fill="white"/>
<path d="M42.4671 6.16724L41.4838 9.23134H40.8438L40.4365 7.90079C40.3332 7.56864 40.2491 7.23844 40.1838 6.91084H40.1711C40.1105 7.24754 40.0265 7.57709 39.9185 7.90079L39.4858 9.23134H38.8385L37.9138 6.16724H38.6318L38.9871 7.62389C39.0731 7.96839 39.1438 8.29664 39.2005 8.60734H39.2131C39.2651 8.35124 39.3511 8.02494 39.4725 7.63039L39.9185 6.16789H40.4878L40.9151 7.59919C41.0185 7.94824 41.1025 8.28429 41.1671 8.60799H41.1865C41.2338 8.29274 41.3051 7.95669 41.3998 7.59919L41.7811 6.16789H42.4671V6.16724Z" fill="white"/>
<path d="M46.0889 9.23123H45.3902V7.47623C45.3902 6.93543 45.1796 6.66503 44.7569 6.66503C44.5496 6.66503 44.3822 6.73913 44.2522 6.88798C44.1236 7.03683 44.0582 7.21233 44.0582 7.41318V9.23058H43.3596V7.04268C43.3596 6.77358 43.3509 6.48173 43.3342 6.16583H43.9482L43.9809 6.64488H44.0002C44.0816 6.49603 44.2029 6.37318 44.3622 6.27503C44.5516 6.16063 44.7636 6.10278 44.9956 6.10278C45.2889 6.10278 45.5329 6.19508 45.7269 6.38033C45.9682 6.60718 46.0889 6.94583 46.0889 7.39563V9.23123Z" fill="white"/>
<path d="M48.0156 9.23128H47.3176V4.76123H48.0156V9.23128Z" fill="white"/>
<path d="M52.129 7.67384C52.129 8.14509 51.991 8.53119 51.715 8.83409C51.4257 9.14544 51.0417 9.30079 50.5637 9.30079C50.1017 9.30079 49.7344 9.15194 49.461 8.85294C49.1877 8.55459 49.051 8.17824 49.051 7.72454C49.051 7.25004 49.1917 6.86069 49.4744 6.55844C49.757 6.25619 50.137 6.10474 50.615 6.10474C51.077 6.10474 51.447 6.25359 51.7284 6.55194C51.995 6.84184 52.129 7.21624 52.129 7.67384ZM51.4037 7.69594C51.4037 7.41319 51.341 7.17074 51.2164 6.96859C51.0704 6.72419 50.861 6.60199 50.5904 6.60199C50.309 6.60199 50.0957 6.72419 49.9497 6.96859C49.8244 7.17074 49.7624 7.41709 49.7624 7.70829C49.7624 7.99104 49.825 8.23349 49.9497 8.43564C50.101 8.68004 50.3117 8.80224 50.5837 8.80224C50.8504 8.80224 51.059 8.67809 51.2097 8.42914C51.3397 8.22309 51.4037 7.97869 51.4037 7.69594Z" fill="white"/>
<path d="M55.5104 9.23124H54.8831L54.8311 8.87829H54.8117C54.5971 9.15974 54.2911 9.30079 53.8938 9.30079C53.5971 9.30079 53.3571 9.20784 53.1764 9.02324C53.0124 8.85554 52.9304 8.64689 52.9304 8.39924C52.9304 8.02484 53.0904 7.73949 53.4124 7.54189C53.7338 7.34429 54.1858 7.24744 54.7678 7.25199V7.19479C54.7678 6.79114 54.5504 6.58964 54.1151 6.58964C53.8051 6.58964 53.5318 6.66569 53.2958 6.81649L53.1538 6.36929C53.4458 6.19314 53.8064 6.10474 54.2318 6.10474C55.0531 6.10474 55.4651 6.52724 55.4651 7.37224V8.50064C55.4651 8.80679 55.4804 9.05054 55.5104 9.23124ZM54.7851 8.17824V7.70569C54.0144 7.69269 53.6291 7.89874 53.6291 8.32319C53.6291 8.48309 53.6731 8.60269 53.7631 8.68264C53.8531 8.76259 53.9678 8.80224 54.1044 8.80224C54.2578 8.80224 54.4011 8.75479 54.5318 8.66054C54.6631 8.56564 54.7438 8.44539 54.7738 8.29784C54.7811 8.26469 54.7851 8.22439 54.7851 8.17824Z" fill="white"/>
<path d="M59.4802 9.23128H58.8602L58.8276 8.73923H58.8082C58.6102 9.11363 58.2729 9.30083 57.7989 9.30083C57.4202 9.30083 57.1049 9.15588 56.8549 8.86598C56.6049 8.57608 56.4802 8.19973 56.4802 7.73758C56.4802 7.24163 56.6156 6.83993 56.8876 6.53313C57.1509 6.24713 57.4736 6.10413 57.8576 6.10413C58.2796 6.10413 58.5749 6.24258 58.7429 6.52013H58.7562V4.76123H59.4556V8.40578C59.4556 8.70413 59.4636 8.97908 59.4802 9.23128ZM58.7562 7.93908V7.42818C58.7562 7.33978 58.7496 7.26828 58.7369 7.21368C58.6976 7.04988 58.6129 6.91208 58.4842 6.80093C58.3542 6.68978 58.1976 6.63388 58.0169 6.63388C57.7562 6.63388 57.5522 6.73463 57.4022 6.93678C57.2536 7.13893 57.1782 7.39698 57.1782 7.71223C57.1782 8.01513 57.2496 8.26083 57.3929 8.44998C57.5442 8.65148 57.7482 8.75223 58.0036 8.75223C58.2329 8.75223 58.4162 8.66838 58.5556 8.50003C58.6902 8.34468 58.7562 8.15748 58.7562 7.93908Z" fill="white"/>
<path d="M65.4557 7.67384C65.4557 8.14509 65.3177 8.53119 65.0417 8.83409C64.7524 9.14544 64.3697 9.30079 63.8904 9.30079C63.4297 9.30079 63.0624 9.15194 62.7877 8.85294C62.5144 8.55459 62.3777 8.17824 62.3777 7.72454C62.3777 7.25004 62.5184 6.86069 62.801 6.55844C63.0837 6.25619 63.4637 6.10474 63.943 6.10474C64.4037 6.10474 64.775 6.25359 65.055 6.55194C65.3217 6.84184 65.4557 7.21624 65.4557 7.67384ZM64.7317 7.69594C64.7317 7.41319 64.669 7.17074 64.5443 6.96859C64.397 6.72419 64.189 6.60199 63.917 6.60199C63.637 6.60199 63.4237 6.72419 63.2764 6.96859C63.151 7.17074 63.089 7.41709 63.089 7.70829C63.089 7.99104 63.1517 8.23349 63.2764 8.43564C63.4277 8.68004 63.6384 8.80224 63.9104 8.80224C64.177 8.80224 64.387 8.67809 64.5377 8.42914C64.6664 8.22309 64.7317 7.97869 64.7317 7.69594Z" fill="white"/>
<path d="M69.2122 9.23123H68.5142V7.47623C68.5142 6.93543 68.3036 6.66503 67.8803 6.66503C67.6729 6.66503 67.5056 6.73913 67.3762 6.88798C67.2469 7.03683 67.1822 7.21233 67.1822 7.41318V9.23058H66.4829V7.04268C66.4829 6.77358 66.4749 6.48173 66.4583 6.16583H67.0716L67.1043 6.64488H67.1236C67.2056 6.49603 67.3269 6.37318 67.4856 6.27503C67.6756 6.16063 67.8869 6.10278 68.1196 6.10278C68.4123 6.10278 68.6562 6.19508 68.8502 6.38033C69.0922 6.60718 69.2122 6.94583 69.2122 7.39563V9.23123Z" fill="white"/>
<path d="M73.9142 6.6774H73.1449V8.1659C73.1449 8.5442 73.2816 8.73335 73.5522 8.73335C73.6776 8.73335 73.7816 8.72295 73.8636 8.7015L73.8816 9.21825C73.7436 9.26895 73.5622 9.2943 73.3389 9.2943C73.0629 9.2943 72.8482 9.2124 72.6929 9.0486C72.5369 8.8848 72.4596 8.6092 72.4596 8.22245V6.6774H72.0002V6.16715H72.4596V5.60555L73.1442 5.40405V6.1665H73.9136V6.6774H73.9142Z" fill="white"/>
<path d="M77.6129 9.23128H76.9136V7.48928C76.9136 6.94003 76.7029 6.66508 76.2809 6.66508C75.9569 6.66508 75.7355 6.82433 75.6142 7.14283C75.5935 7.20978 75.5815 7.29168 75.5815 7.38788V9.23063H74.8835V4.76123H75.5815V6.60788H75.5949C75.8149 6.27183 76.1302 6.10413 76.5389 6.10413C76.8282 6.10413 77.0676 6.19643 77.2576 6.38168C77.4942 6.61243 77.6129 6.95563 77.6129 7.40933V9.23128Z" fill="white"/>
<path d="M81.4285 7.55423C81.4285 7.67643 81.4192 7.77913 81.4025 7.86298H79.3072C79.3165 8.16588 79.4165 8.39663 79.6105 8.55653C79.7879 8.69953 80.0165 8.77103 80.2965 8.77103C80.6065 8.77103 80.8892 8.72293 81.1439 8.62608L81.2532 9.09928C80.9552 9.22538 80.6045 9.28843 80.1985 9.28843C79.7119 9.28843 79.3285 9.14868 79.0512 8.86918C78.7725 8.58968 78.6345 8.21463 78.6345 7.74403C78.6345 7.28188 78.7632 6.89708 79.0225 6.59028C79.2932 6.26268 79.6592 6.09888 80.1212 6.09888C80.5732 6.09888 80.9165 6.26268 81.1485 6.59028C81.3359 6.85028 81.4285 7.17203 81.4285 7.55423ZM80.7619 7.37808C80.7672 7.17593 80.7212 7.00173 80.6265 6.85483C80.5052 6.66568 80.3205 6.57078 80.0705 6.57078C79.8425 6.57078 79.6565 6.66308 79.5145 6.84833C79.3985 6.99588 79.3299 7.17203 79.3072 7.37808H80.7619Z" fill="white"/>
</svg>
