<svg width="200" height="61" viewBox="0 0 200 61" fill="none" xmlns="http://www.w3.org/2000/svg">
<rect x="0.886475" width="199.113" height="61" rx="7.10596" fill="black"/>
<path fill-rule="evenodd" clip-rule="evenodd" d="M88.7703 15.0916C88.7703 15.3193 88.8458 15.5145 88.9968 15.6772C89.1558 15.8317 89.3465 15.909 89.5691 15.909C89.7917 15.909 89.9824 15.8297 90.1414 15.6711C90.3004 15.5125 90.3799 15.3193 90.3799 15.0916C90.3799 14.8557 90.3004 14.6585 90.1414 14.4999C89.9824 14.3413 89.7917 14.262 89.5691 14.262C89.3465 14.262 89.1578 14.3433 89.0028 14.506C88.8478 14.6686 88.7703 14.8638 88.7703 15.0916ZM72.7221 23.1803H73.664V18.9469H69.6221V20.0205H72.5551C72.5392 20.2645 72.4816 20.5085 72.3823 20.7525C72.2829 20.9965 72.1358 21.2385 71.9411 21.4784C71.7464 21.7183 71.4761 21.9115 71.1303 22.0579C70.7846 22.2043 70.3891 22.2775 69.944 22.2775C69.1333 22.2775 68.4397 21.9786 67.8635 21.3808C67.2872 20.783 66.9991 19.9392 66.9991 18.8493C66.9991 17.7676 67.2932 16.9298 67.8814 16.3361C68.4696 15.7424 69.173 15.4455 69.9917 15.4455C70.6435 15.4455 71.2059 15.6183 71.6788 15.964C72.1517 16.3097 72.4836 16.7956 72.6744 17.4219L73.7355 16.9583C73.4891 16.1694 73.0301 15.537 72.3584 15.0612C71.6867 14.5854 70.8979 14.3475 69.9917 14.3475C69.2763 14.3475 68.6067 14.5142 67.9827 14.8477C67.3587 15.1812 66.8401 15.6976 66.4268 16.3971C66.0134 17.0966 65.8068 17.914 65.8068 18.8493C65.8068 19.7846 66.0035 20.602 66.3969 21.3015C66.7904 22.001 67.2932 22.5195 67.9052 22.857C68.5172 23.1945 69.1849 23.3633 69.9082 23.3633C70.568 23.3633 71.1323 23.225 71.6013 22.9485C72.0703 22.672 72.4081 22.3426 72.6147 21.9603L72.7221 23.1803ZM79.2079 19.6421H76.0721C76.096 19.2354 76.251 18.8836 76.5371 18.5868C76.8233 18.2899 77.1889 18.1415 77.634 18.1415C78.1268 18.1415 78.5084 18.2818 78.7786 18.5624C79.0489 18.843 79.192 19.2029 79.2079 19.6421ZM79.374 21.1674L80.3398 21.509C80.1729 22.0539 79.8629 22.4992 79.4098 22.8449C78.9567 23.1906 78.4083 23.3634 77.7644 23.3634C76.9616 23.3634 76.28 23.0808 75.7196 22.5155C75.1593 21.9502 74.8791 21.1877 74.8791 20.228C74.8791 19.3333 75.1493 18.5932 75.6898 18.0076C76.2303 17.422 76.8742 17.1292 77.6213 17.1292C78.4878 17.1292 79.1634 17.4078 79.6482 17.9649C80.1331 18.522 80.3755 19.2682 80.3755 20.2036C80.3755 20.35 80.3676 20.472 80.3517 20.5696H76.0356C76.0435 21.0901 76.2125 21.5171 76.5423 21.8506C76.8722 22.1841 77.2796 22.3508 77.7644 22.3508C78.5831 22.3508 79.1197 21.9563 79.374 21.1674ZM83.3102 17.312V15.4576H82.2848V16.4092C82.2848 16.6776 82.2113 16.8952 82.0643 17.0619C81.9172 17.2286 81.6966 17.312 81.4025 17.312H81.0925V18.349H82.1894V21.5698C82.1894 22.0985 82.3325 22.5092 82.6187 22.802C82.9048 23.0948 83.2943 23.2412 83.7871 23.2412C84.1051 23.2412 84.3594 23.2046 84.5502 23.1314V22.1554C84.423 22.1879 84.276 22.2042 84.109 22.2042C83.8229 22.2042 83.6182 22.1391 83.495 22.009C83.3718 21.8789 83.3102 21.6755 83.3102 21.399V18.349H84.5502V17.312H83.3102ZM90.1305 23.1803H89.0217V17.3121H90.1305V23.1803ZM93.54 15.4576V17.312H94.78V18.349H93.54V21.399C93.54 21.6755 93.6016 21.8789 93.7248 22.009C93.848 22.1391 94.0527 22.2042 94.3389 22.2042C94.5058 22.2042 94.6528 22.1879 94.78 22.1554V23.1314C94.5892 23.2046 94.3349 23.2412 94.0169 23.2412C93.5241 23.2412 93.1346 23.0948 92.8485 22.802C92.5623 22.5092 92.4193 22.0985 92.4193 21.5698V18.349H91.3224V17.312H91.6324C91.9265 17.312 92.147 17.2286 92.2941 17.0619C92.4411 16.8952 92.5147 16.6776 92.5147 16.4092V15.4576H93.54ZM101.706 22.3384C101.206 22.3384 100.78 22.1554 100.431 21.7894C100.089 21.4152 99.918 20.8988 99.918 20.24C99.918 19.5893 100.091 19.0789 100.437 18.7089C100.782 18.3388 101.206 18.1538 101.706 18.1538C102.207 18.1538 102.63 18.3388 102.976 18.7089C103.322 19.0789 103.495 19.5893 103.495 20.24C103.495 20.8988 103.322 21.4132 102.976 21.7833C102.63 22.1533 102.207 22.3384 101.706 22.3384ZM99.5968 18.0198C100.153 17.4261 100.857 17.1292 101.707 17.1292C102.558 17.1292 103.259 17.424 103.812 18.0137C104.364 18.6034 104.64 19.3455 104.64 20.2402C104.64 21.143 104.366 21.8892 103.818 22.4789C103.269 23.0686 102.566 23.3634 101.707 23.3634C100.849 23.3634 100.145 23.0686 99.5968 22.4789C99.0484 21.8892 98.7741 21.143 98.7741 20.2402C98.7741 19.3455 99.0484 18.6054 99.5968 18.0198ZM107.191 23.1805V19.7889C107.191 19.3253 107.308 18.941 107.542 18.636C107.777 18.331 108.105 18.1785 108.526 18.1785C109.416 18.1785 109.861 18.6705 109.861 19.6547V23.1805H110.982V19.4595C110.982 18.7763 110.805 18.2191 110.452 17.7881C110.098 17.357 109.591 17.1415 108.931 17.1415C108.137 17.1415 107.548 17.479 107.167 18.1541V17.3123H106.07V23.1805H107.191Z" fill="white"/>
<path fill-rule="evenodd" clip-rule="evenodd" d="M117.005 29.7876V43.9201H114.792V29.7876H117.005ZM78.8911 36.9124V43.9201H77.0406L76.8689 42.1633C76.2776 43.1783 74.885 44.2129 72.7293 44.2129C69.2001 44.2129 66.0715 41.5582 66.0715 36.9905C66.0715 32.4423 69.3718 29.7876 72.8819 29.7876C76.1631 29.7876 78.2615 31.7201 78.9864 34.0039L76.8308 34.8433C76.3729 33.2817 75.0376 31.9543 72.8819 31.9543C70.6881 31.9543 68.3989 33.555 68.3989 36.9905C68.3989 40.3675 70.5355 42.0657 72.8628 42.0657C75.5908 42.0657 76.6209 40.1527 76.7354 38.962H72.2715V36.9124H78.8911ZM82.9546 39.157C82.9546 41.1286 84.1946 42.1826 85.549 42.1826C86.9226 42.1826 88.1435 41.1481 88.1435 39.157C88.1435 37.1855 86.9226 36.1705 85.549 36.1705C84.1946 36.1705 82.9546 37.1855 82.9546 39.157ZM85.5497 34.1209C82.7836 34.1209 80.7424 36.2486 80.7424 39.1571C80.7424 42.0851 82.7836 44.2128 85.5497 44.2128C88.3349 44.2128 90.3761 42.0851 90.3761 39.1571C90.3761 36.2486 88.3349 34.1209 85.5497 34.1209ZM93.9995 39.157C93.9995 41.1286 95.2394 42.1826 96.5939 42.1826C97.9674 42.1826 99.1883 41.1481 99.1883 39.157C99.1883 37.1855 97.9674 36.1705 96.5939 36.1705C95.2394 36.1705 93.9995 37.1855 93.9995 39.157ZM96.5946 34.1209C93.8285 34.1209 91.7873 36.2486 91.7873 39.1571C91.7873 42.0851 93.8285 44.2128 96.5946 44.2128C99.3798 44.2128 101.421 42.0851 101.421 39.1571C101.421 36.2486 99.3798 34.1209 96.5946 34.1209ZM107.317 47.9216C104.856 47.9216 103.139 46.36 102.891 44.447L104.932 43.9005C105.085 45.0717 105.981 45.9501 107.259 45.9501C109.015 45.9501 109.892 45.0326 109.892 43.1001V42.1046C109.491 42.8464 108.557 43.4905 107.202 43.4905C104.722 43.4905 102.91 41.5385 102.91 38.8643C102.91 36.3267 104.646 34.2381 107.202 34.2381C108.652 34.2381 109.549 34.8432 109.949 35.624V34.4137H112.086V43.0221C112.086 45.5597 110.808 47.9216 107.317 47.9216ZM107.563 41.5582C106.113 41.5582 105.14 40.5236 105.14 38.8644C105.14 37.2443 106.151 36.1902 107.563 36.1902C108.936 36.1902 109.948 37.2443 109.948 38.8644C109.948 40.5041 108.975 41.5582 107.563 41.5582ZM121.414 38.1227C121.49 37.1076 122.291 36.0145 123.684 36.0145C125.21 36.0145 125.935 37.01 125.973 38.1227H121.414ZM123.893 42.2608C125.228 42.2608 125.915 41.5385 126.22 40.6016L128.09 41.2067C127.594 42.8659 126.125 44.2128 123.893 44.2128C121.375 44.2128 119.143 42.3389 119.143 39.1181C119.143 36.112 121.317 34.1209 123.664 34.1209C126.525 34.1209 128.204 36.0534 128.204 39.0595C128.204 39.4304 128.166 39.7427 128.147 39.7817H121.355C121.413 41.2262 122.519 42.2608 123.893 42.2608ZM137.532 36.4439V32.1495H139.917C141.367 32.1495 142.244 32.9888 142.244 34.3162C142.244 35.624 141.367 36.4439 139.917 36.4439H137.532ZM144.572 34.2967C144.572 36.7367 142.855 38.5131 140.261 38.5131H137.533V43.9201H135.243V30.0804H140.261C142.855 30.0804 144.572 31.8763 144.572 34.2967ZM148.75 43.9201V29.7876H146.538V43.9201H148.75ZM154.186 44.2128C152.241 44.2128 151.039 42.8464 151.039 41.3433C151.039 39.6451 152.26 38.7081 153.843 38.4739L156.228 38.103C156.762 38.0249 156.914 37.7517 156.914 37.4198C156.914 36.6195 156.38 35.9753 155.159 35.9753C153.996 35.9753 153.347 36.7366 153.252 37.6931L151.23 37.2246C151.401 35.5849 152.851 34.1209 155.14 34.1209C158.002 34.1209 159.089 35.7801 159.089 37.6736L159.091 42.6059C159.1 43.0778 159.136 43.445 159.165 43.6727L159.204 43.92H157.143C157.124 43.8614 157.048 43.471 157.048 42.7097C156.609 43.432 155.694 44.2128 154.186 44.2128ZM154.605 42.4366C153.728 42.4366 153.251 41.851 153.251 41.2069C153.251 40.4261 153.804 40.0357 154.491 39.9185L156.914 39.5477V39.9771C156.914 41.8315 155.845 42.4366 154.605 42.4366ZM162.217 47.7654H164.582L170.496 34.4138H168.15L165.651 40.4259L162.98 34.4138H160.481L164.449 42.7878L162.217 47.7654Z" fill="white"/>
<path d="M24.8442 17.238C24.7771 17.4828 24.73 17.7454 24.73 18.0464V42.8301C24.73 43.127 24.7753 43.3883 24.8411 43.6298L38.3467 30.4516L24.8442 17.238Z" fill="#48A0DC"/>
<path d="M27.8505 16.2755C27.2219 15.8807 26.6021 15.7819 26.0789 15.9182L39.6409 29.1903L43.619 25.3093L27.8505 16.2755Z" fill="#88C057"/>
<path d="M49.4339 28.64L45.2246 26.2285L40.9139 30.4348L45.3055 34.7334L49.4015 32.4171C51.399 31.2445 50.6694 29.3551 49.4339 28.64Z" fill="#FFCC66"/>
<path d="M39.6191 31.6956L26.0402 44.9438C26.5714 45.0971 27.2054 45.0061 27.8501 44.6012L43.6679 35.6575L39.6191 31.6956Z" fill="#ED7161"/>
</svg>
