<svg width="180" height="41" viewBox="0 0 180 41" fill="none" xmlns="http://www.w3.org/2000/svg">
<path fill-rule="evenodd" clip-rule="evenodd" d="M78.747 1.0064C78.747 1.28267 78.8399 1.51947 79.0256 1.7168C79.2211 1.90427 79.4557 1.998 79.7293 1.998C80.003 1.998 80.2376 1.9018 80.4331 1.7094C80.6285 1.517 80.7263 1.28267 80.7263 1.0064C80.7263 0.720265 80.6285 0.481001 80.4331 0.2886C80.2376 0.096199 80.003 0 79.7293 0C79.4557 0 79.2235 0.0986657 79.0329 0.296C78.8423 0.493334 78.747 0.730132 78.747 1.0064ZM59.0132 10.8189H60.1714V5.68332H55.2013V6.98572H58.8079C58.7884 7.28173 58.7175 7.57772 58.5953 7.87372C58.4731 8.16973 58.2923 8.46326 58.0529 8.75432C57.8134 9.04539 57.4811 9.27972 57.0559 9.45732C56.6307 9.63493 56.1445 9.72372 55.5971 9.72372C54.6002 9.72372 53.7474 9.36113 53.0388 8.63592C52.3302 7.91072 51.9759 6.88706 51.9759 5.56492C51.9759 4.25265 52.3375 3.23639 53.0608 2.51612C53.7841 1.79585 54.6491 1.43572 55.6558 1.43572C56.4573 1.43572 57.1488 1.64539 57.7303 2.06472C58.3119 2.48406 58.7199 3.07359 58.9545 3.83332L60.2593 3.27092C59.9563 2.31385 59.3919 1.54673 58.566 0.969523C57.7401 0.39232 56.77 0.103723 55.6558 0.103723C54.7761 0.103723 53.9527 0.305988 53.1854 0.710523C52.4181 1.11506 51.7804 1.74159 51.2721 2.59012C50.7639 3.43866 50.5098 4.43025 50.5098 5.56492C50.5098 6.6996 50.7517 7.69119 51.2355 8.53972C51.7193 9.38826 52.3375 10.0173 53.0901 10.4267C53.8427 10.8362 54.6637 11.0409 55.5532 11.0409C56.3644 11.0409 57.0584 10.8732 57.635 10.5377C58.2117 10.2023 58.6271 9.80266 58.8812 9.33892L59.0132 10.8189ZM66.9885 6.52659H63.1327C63.162 6.03326 63.3526 5.60653 63.7044 5.24639C64.0563 4.88626 64.5059 4.70619 65.0533 4.70619C65.6592 4.70619 66.1284 4.87639 66.4607 5.21679C66.793 5.5572 66.969 5.99379 66.9885 6.52659ZM67.1927 8.3769L68.3803 8.7913C68.175 9.45237 67.7939 9.99257 67.2367 10.4119C66.6796 10.8312 66.0052 11.0409 65.2135 11.0409C64.2263 11.0409 63.3882 10.698 62.6991 10.0123C62.0101 9.32657 61.6655 8.40158 61.6655 7.2373C61.6655 6.15196 61.9979 5.25411 62.6625 4.5437C63.3271 3.8333 64.1188 3.4781 65.0376 3.4781C66.103 3.4781 66.9337 3.81603 67.53 4.4919C68.1262 5.16777 68.4243 6.07303 68.4243 7.2077C68.4243 7.3853 68.4145 7.5333 68.395 7.6517H63.0877C63.0974 8.28317 63.3051 8.80117 63.7108 9.2057C64.1164 9.61024 64.6173 9.8125 65.2135 9.8125C66.2202 9.8125 66.88 9.33398 67.1927 8.3769ZM72.0329 3.70001V1.45041H70.7721V2.60481C70.7721 2.93041 70.6817 3.19435 70.5009 3.39661C70.32 3.59888 70.0488 3.70001 69.6872 3.70001H69.306V4.95801H70.6548V8.86522C70.6548 9.50655 70.8307 10.0048 71.1826 10.36C71.5345 10.7152 72.0134 10.8928 72.6194 10.8928C73.0103 10.8928 73.3231 10.8484 73.5577 10.7596V9.57561C73.4013 9.61508 73.2205 9.63482 73.0152 9.63482C72.6634 9.63482 72.4117 9.55588 72.2602 9.39802C72.1087 9.24015 72.0329 8.99348 72.0329 8.65802V4.95801H73.5577V3.70001H72.0329ZM80.4195 10.8188H79.0561V3.7H80.4195V10.8188ZM84.612 1.45041V3.70001H86.1368V4.95801H84.612V8.65802C84.612 8.99348 84.6878 9.24015 84.8393 9.39802C84.9908 9.55588 85.2425 9.63482 85.5943 9.63482C85.7996 9.63482 85.9804 9.61508 86.1368 9.57561V10.7596C85.9022 10.8484 85.5894 10.8928 85.1985 10.8928C84.5925 10.8928 84.1136 10.7152 83.7617 10.36C83.4098 10.0048 83.2339 9.50655 83.2339 8.86522V4.95801H81.8851V3.70001H82.2663C82.6279 3.70001 82.8991 3.59888 83.08 3.39661C83.2608 3.19435 83.3512 2.93041 83.3512 2.60481V1.45041H84.612ZM94.6538 9.79747C94.0381 9.79747 93.5152 9.57547 93.0851 9.13147C92.6648 8.6776 92.4547 8.05108 92.4547 7.25187C92.4547 6.46253 92.6673 5.84341 93.0924 5.39447C93.5176 4.94554 94.0381 4.72107 94.6538 4.72107C95.2696 4.72107 95.7901 4.94554 96.2152 5.39447C96.6404 5.84341 96.853 6.46253 96.853 7.25187C96.853 8.05108 96.6404 8.67514 96.2152 9.12407C95.7901 9.57301 95.2696 9.79747 94.6538 9.79747ZM92.0598 4.5585C92.744 3.83823 93.609 3.4781 94.6548 3.4781C95.7007 3.4781 96.5632 3.83577 97.2425 4.5511C97.9218 5.26644 98.2614 6.16676 98.2614 7.2521C98.2614 8.34731 97.9242 9.25257 97.2498 9.9679C96.5754 10.6832 95.7104 11.0409 94.6548 11.0409C93.5992 11.0409 92.7342 10.6832 92.0598 9.9679C91.3854 9.25257 91.0482 8.34731 91.0482 7.2521C91.0482 6.16676 91.3854 5.26891 92.0598 4.5585ZM101.397 10.819V6.70458C101.397 6.14218 101.542 5.67598 101.83 5.30598C102.118 4.93598 102.521 4.75098 103.04 4.75098C104.134 4.75098 104.682 5.34791 104.682 6.54178V10.819H106.06V6.30498C106.06 5.47618 105.842 4.80032 105.407 4.27738C104.972 3.75445 104.349 3.49298 103.538 3.49298C102.561 3.49298 101.837 3.90244 101.368 4.72138V3.70018H100.019V10.819H101.397Z" fill="white"/>
<path fill-rule="evenodd" clip-rule="evenodd" d="M66.599 27.4777V35.9788H64.3236L64.1125 33.8476C63.3853 35.079 61.6729 36.334 59.0222 36.334C54.6825 36.334 50.8354 33.1135 50.8354 27.5724C50.8354 22.055 54.8936 18.8345 59.2098 18.8345C63.2445 18.8345 65.8249 21.1788 66.7163 23.9494L64.0656 24.9676C63.5026 23.0732 61.8605 21.463 59.2098 21.463C56.5122 21.463 53.6973 23.4047 53.6973 27.5724C53.6973 31.669 56.3245 33.7292 59.1864 33.7292C62.5408 33.7292 63.8075 31.4086 63.9483 29.9641H58.4592V27.4777H66.599ZM71.5957 30.2008C71.5957 32.5925 73.1204 33.8712 74.7859 33.8712C76.4749 33.8712 77.9762 32.6161 77.9762 30.2008C77.9762 27.8091 76.4749 26.5777 74.7859 26.5777C73.1204 26.5777 71.5957 27.8091 71.5957 30.2008ZM74.7867 24.0914C71.3853 24.0914 68.8754 26.6725 68.8754 30.2008C68.8754 33.7528 71.3853 36.3339 74.7867 36.3339C78.2115 36.3339 80.7215 33.7528 80.7215 30.2008C80.7215 26.6725 78.2115 24.0914 74.7867 24.0914ZM85.177 30.2008C85.177 32.5925 86.7017 33.8712 88.3672 33.8712C90.0562 33.8712 91.5575 32.6161 91.5575 30.2008C91.5575 27.8091 90.0562 26.5777 88.3672 26.5777C86.7017 26.5777 85.177 27.8091 85.177 30.2008ZM88.368 24.0914C84.9667 24.0914 82.4567 26.6725 82.4567 30.2008C82.4567 33.7528 84.9667 36.3339 88.368 36.3339C91.7928 36.3339 94.3028 33.7528 94.3028 30.2008C94.3028 26.6725 91.7928 24.0914 88.368 24.0914ZM101.553 40.833C98.5266 40.833 96.4154 38.9386 96.1104 36.618L98.6204 35.955C98.8081 37.3758 99.9106 38.4414 101.482 38.4414C103.64 38.4414 104.719 37.3284 104.719 34.9841V33.7764C104.227 34.6762 103.077 35.4577 101.412 35.4577C98.3624 35.4577 96.1339 33.0897 96.1339 29.8455C96.1339 26.7671 98.2685 24.2334 101.412 24.2334C103.195 24.2334 104.297 24.9674 104.79 25.9146V24.4465H107.417V34.8894C107.417 37.9678 105.845 40.833 101.553 40.833ZM101.855 33.1135C100.073 33.1135 98.8762 31.8585 98.8762 29.8457C98.8762 27.8803 100.119 26.6015 101.855 26.6015C103.544 26.6015 104.788 27.8803 104.788 29.8457C104.788 31.8348 103.591 33.1135 101.855 33.1135ZM113.466 18.8345V35.9788H110.745V18.8345H113.466ZM118.887 28.9458C118.981 27.7144 119.966 26.3884 121.678 26.3884C123.555 26.3884 124.446 27.596 124.493 28.9458H118.887ZM121.935 33.9659C123.577 33.9659 124.422 33.0898 124.797 31.9531L127.096 32.6872C126.486 34.7 124.68 36.3339 121.935 36.3339C118.839 36.3339 116.094 34.0607 116.094 30.1535C116.094 26.5067 118.768 24.0914 121.654 24.0914C125.172 24.0914 127.237 26.4357 127.237 30.0824C127.237 30.5323 127.19 30.9112 127.166 30.9586H118.815C118.886 32.7109 120.246 33.9659 121.935 33.9659ZM138.707 26.9094V21.6998H141.639C143.422 21.6998 144.501 22.718 144.501 24.3283C144.501 25.9148 143.422 26.9094 141.639 26.9094H138.707ZM147.363 24.3045C147.363 27.2645 145.252 29.4194 142.062 29.4194H138.708V35.9788H135.893V19.1896H142.062C145.252 19.1896 147.363 21.3682 147.363 24.3045ZM152.502 35.9788V18.8345H149.78V35.9788H152.502ZM159.186 36.3339C156.793 36.3339 155.315 34.6763 155.315 32.853C155.315 30.7928 156.817 29.6562 158.764 29.372L161.696 28.9221C162.353 28.8274 162.54 28.4959 162.54 28.0933C162.54 27.1224 161.884 26.341 160.382 26.341C158.951 26.341 158.154 27.2645 158.036 28.4248L155.55 27.8565C155.761 25.8674 157.544 24.0914 160.359 24.0914C163.877 24.0914 165.215 26.1042 165.215 28.4011L165.217 34.3846C165.227 34.957 165.272 35.4025 165.308 35.6788L165.355 35.9787H162.822C162.798 35.9077 162.705 35.4341 162.705 34.5106C162.165 35.3867 161.039 36.3339 159.186 36.3339ZM159.701 34.1792C158.622 34.1792 158.036 33.4688 158.036 32.6874C158.036 31.7402 158.716 31.2666 159.56 31.1245L162.54 30.6746V31.1955C162.54 33.4451 161.226 34.1792 159.701 34.1792ZM169.061 40.6437H171.969L179.241 24.4465H176.356L173.283 31.74L169.999 24.4465H166.926L171.805 34.6053L169.061 40.6437Z" fill="white"/>
<path d="M0.140497 3.6106C0.0579483 3.90752 0 4.22609 0 4.59128V34.6567C0 35.0169 0.0557616 35.3338 0.13667 35.6269L16.7438 19.6401L0.140497 3.6106Z" fill="#48A0DC"/>
<path d="M3.83716 2.44288C3.06415 1.96391 2.30208 1.84403 1.65863 2.00942L18.3352 18.11L23.2269 13.4019L3.83716 2.44288Z" fill="#88C057"/>
<path d="M30.3772 17.4425L25.2012 14.5171L19.9006 19.6198L25.3007 24.8345L30.3373 22.0246C32.7935 20.6021 31.8964 18.31 30.3772 17.4425Z" fill="#FFCC66"/>
<path d="M18.3083 21.1492L1.61102 37.2209C2.26431 37.4068 3.04388 37.2963 3.83657 36.8052L23.287 25.9555L18.3083 21.1492Z" fill="#ED7161"/>
</svg>
