<svg width="90" height="27" viewBox="0 0 90 27" fill="none" xmlns="http://www.w3.org/2000/svg">
<path d="M86.6713 26.5H3.45253C1.62255 26.5 0.123779 25.0367 0.123779 23.25V3.75C0.123779 1.96331 1.62255 0.500001 3.45253 0.500001H86.6713C88.5013 0.500001 90.0001 1.96331 90.0001 3.75V23.25C90.0001 25.0367 88.5013 26.5 86.6713 26.5Z" fill="black"/>
<path d="M86.6713 1.02081C88.2125 1.02081 89.4666 2.24525 89.4666 3.75V23.25C89.4666 24.7548 88.2125 25.9792 86.6713 25.9792H3.45253C1.91132 25.9792 0.657212 24.7548 0.657212 23.25V3.75C0.657212 2.24525 1.91132 1.02081 3.45253 1.02081H86.6713ZM86.6713 0.500001H3.45253C1.62255 0.500001 0.123779 1.96331 0.123779 3.75V23.25C0.123779 25.0367 1.62255 26.5 3.45253 26.5H86.6713C88.5013 26.5 90.0001 25.0367 90.0001 23.25V3.75C90.0001 1.96331 88.5013 0.500001 86.6713 0.500001Z" fill="#A6A6A6"/>
<path d="M31.6921 7.15859C31.6921 7.70134 31.5256 8.13603 31.1978 8.46022C30.8208 8.84453 30.3298 9.0379 29.7281 9.0379C29.1531 9.0379 28.6621 8.84128 28.2593 8.45371C27.8557 8.06046 27.6543 7.57784 27.6543 7.00015C27.6543 6.42246 27.8557 5.93984 28.2593 5.54984C28.6621 5.15903 29.1531 4.9624 29.7281 4.9624C30.0144 4.9624 30.2873 5.02009 30.5478 5.12734C30.8075 5.2354 31.0188 5.38165 31.172 5.56203L30.8241 5.9049C30.557 5.59697 30.1933 5.44503 29.7281 5.44503C29.3087 5.44503 28.945 5.58803 28.6363 5.87646C28.3309 6.16571 28.1777 6.54028 28.1777 7.00015C28.1777 7.46003 28.3309 7.83784 28.6363 8.12709C28.945 8.41228 29.3087 8.55853 29.7281 8.55853C30.1733 8.55853 30.5478 8.41228 30.8432 8.12384C31.038 7.9329 31.1487 7.66965 31.1778 7.33328H29.7281V6.86365H31.6621C31.6854 6.96521 31.6921 7.06353 31.6921 7.15859Z" fill="white" stroke="white" stroke-width="0.08" stroke-miterlimit="10"/>
<path d="M34.7602 5.53032H32.9435V6.76532H34.5812V7.23494H32.9435V8.46994H34.7602V8.94851H32.4292V5.05176H34.7602V5.53032Z" fill="white" stroke="white" stroke-width="0.08" stroke-miterlimit="10"/>
<path d="M36.9257 8.94851H36.4114V5.53032H35.2971V5.05176H38.0408V5.53032H36.9257V8.94851Z" fill="white" stroke="white" stroke-width="0.08" stroke-miterlimit="10"/>
<path d="M40.0264 8.94851V5.05176H40.5398V8.94851H40.0264Z" fill="white" stroke="white" stroke-width="0.08" stroke-miterlimit="10"/>
<path d="M42.8158 8.94851H42.3057V5.53032H41.1873V5.05176H43.9343V5.53032H42.8158V8.94851Z" fill="white" stroke="white" stroke-width="0.08" stroke-miterlimit="10"/>
<path d="M49.1287 8.44721C48.7351 8.84128 48.2475 9.0379 47.6658 9.0379C47.0807 9.0379 46.5931 8.84128 46.1994 8.44721C45.8066 8.05396 45.6111 7.57134 45.6111 7.00015C45.6111 6.42896 45.8066 5.94634 46.1994 5.55309C46.5931 5.15903 47.0807 4.9624 47.6658 4.9624C48.2441 4.9624 48.7318 5.15903 49.1254 5.55634C49.5215 5.95284 49.7171 6.43221 49.7171 7.00015C49.7171 7.57134 49.5215 8.05396 49.1287 8.44721ZM46.5798 8.12059C46.876 8.41228 47.2363 8.55853 47.6658 8.55853C48.0918 8.55853 48.4555 8.41228 48.7484 8.12059C49.0439 7.8289 49.1937 7.45434 49.1937 7.00015C49.1937 6.54596 49.0439 6.1714 48.7484 5.87972C48.4555 5.58803 48.0918 5.44178 47.6658 5.44178C47.2363 5.44178 46.876 5.58803 46.5798 5.87972C46.2843 6.1714 46.1345 6.54596 46.1345 7.00015C46.1345 7.45434 46.2843 7.8289 46.5798 8.12059Z" fill="white" stroke="white" stroke-width="0.08" stroke-miterlimit="10"/>
<path d="M50.4387 8.94851V5.05176H51.0629L53.0035 8.08238H53.026L53.0035 7.33326V5.05176H53.517V8.94851H52.9811L50.9489 5.76838H50.9264L50.9489 6.52076V8.94851H50.4387Z" fill="white" stroke="white" stroke-width="0.08" stroke-miterlimit="10"/>
<path d="M45.4845 14.6391C43.9209 14.6391 42.6435 15.801 42.6435 17.4041C42.6435 18.9941 43.9209 20.1682 45.4845 20.1682C47.0516 20.1682 48.329 18.9941 48.329 17.4041C48.329 15.801 47.0516 14.6391 45.4845 14.6391ZM45.4845 19.0795C44.6266 19.0795 43.8884 18.388 43.8884 17.4041C43.8884 16.4071 44.6266 15.7279 45.4845 15.7279C46.3425 15.7279 47.084 16.4071 47.084 17.4041C47.084 18.388 46.3425 19.0795 45.4845 19.0795ZM39.2856 14.6391C37.7186 14.6391 36.4445 15.801 36.4445 17.4041C36.4445 18.9941 37.7186 20.1682 39.2856 20.1682C40.8518 20.1682 42.1267 18.9941 42.1267 17.4041C42.1267 15.801 40.8518 14.6391 39.2856 14.6391ZM39.2856 19.0795C38.4268 19.0795 37.6861 18.388 37.6861 17.4041C37.6861 16.4071 38.4268 15.7279 39.2856 15.7279C40.1436 15.7279 40.8817 16.4071 40.8817 17.4041C40.8817 18.388 40.1436 19.0795 39.2856 19.0795ZM31.9091 15.4866V16.6615H34.7826C34.6986 17.318 34.4739 17.8006 34.1293 18.137C33.7099 18.5432 33.0567 18.9941 31.9091 18.9941C30.1407 18.9941 28.7559 17.6007 28.7559 15.8741C28.7559 14.1476 30.1407 12.7541 31.9091 12.7541C32.8652 12.7541 33.561 13.119 34.0744 13.5918L34.9224 12.7639C34.2042 12.0944 33.2489 11.5801 31.9091 11.5801C29.4841 11.5801 27.446 13.5065 27.446 15.8741C27.446 18.2418 29.4841 20.1682 31.9091 20.1682C33.2198 20.1682 34.2042 19.749 34.9782 18.9625C35.7712 18.1881 36.0184 17.0994 36.0184 16.2203C36.0184 15.9473 35.9951 15.6962 35.9535 15.4866H31.9091ZM62.0725 16.3974C61.8387 15.7791 61.1172 14.6391 59.6475 14.6391C58.1912 14.6391 56.9787 15.7596 56.9787 17.4041C56.9787 18.9527 58.1787 20.1682 59.7874 20.1682C61.0881 20.1682 61.8387 19.3939 62.1474 18.943L61.1821 18.3149C60.86 18.7748 60.4215 19.0795 59.7874 19.0795C59.1574 19.0795 58.7055 18.7975 58.4159 18.2418L62.2032 16.7118L62.0725 16.3974ZM58.2112 17.318C58.1787 16.252 59.0592 15.706 59.69 15.706C60.1843 15.706 60.6037 15.9473 60.7435 16.2926L58.2112 17.318ZM55.1329 20H56.3779V11.875H55.1329V20ZM53.0941 15.255H53.0525C52.7728 14.9316 52.2394 14.6391 51.5637 14.6391C50.1456 14.6391 48.8491 15.8546 48.8491 17.413C48.8491 18.9625 50.1456 20.1682 51.5637 20.1682C52.2394 20.1682 52.7728 19.8733 53.0525 19.5401H53.0941V19.9366C53.0941 20.9937 52.5157 21.5616 51.5828 21.5616C50.8222 21.5616 50.3503 21.0254 50.1556 20.5745L49.0729 21.0156C49.385 21.7485 50.2114 22.6504 51.5828 22.6504C53.0425 22.6504 54.2741 21.8119 54.2741 19.7717V14.8073H53.0941V15.255ZM51.6702 19.0795C50.8122 19.0795 50.094 18.3783 50.094 17.413C50.094 16.4388 50.8122 15.7279 51.6702 15.7279C52.5157 15.7279 53.1823 16.4388 53.1823 17.413C53.1823 18.3783 52.5157 19.0795 51.6702 19.0795ZM67.9012 11.875H64.9236V20H66.1652V16.9215H67.9012C69.2801 16.9215 70.6324 15.9473 70.6324 14.3978C70.6324 12.8492 69.2768 11.875 67.9012 11.875ZM67.9336 15.7913H66.1652V13.0052H67.9336C68.8607 13.0052 69.39 13.7568 69.39 14.3978C69.39 15.0267 68.8607 15.7913 67.9336 15.7913ZM75.6089 14.6237C74.7118 14.6237 73.7789 15.0105 73.3953 15.8676L74.4971 16.3186C74.7343 15.8676 75.1703 15.7214 75.6314 15.7214C76.2755 15.7214 76.9287 16.0992 76.9387 16.7663V16.8516C76.714 16.7248 76.233 16.5371 75.6414 16.5371C74.4547 16.5371 73.2455 17.175 73.2455 18.3653C73.2455 19.454 74.2175 20.1552 75.3101 20.1552C76.1457 20.1552 76.6067 19.7871 76.8963 19.359H76.9387V19.987H78.1379V16.8703C78.1379 15.4297 77.0361 14.6237 75.6089 14.6237ZM75.4591 19.0762C75.053 19.0762 74.4871 18.8796 74.4871 18.388C74.4871 17.7591 75.1928 17.5178 75.8036 17.5178C76.3504 17.5178 76.6067 17.6356 76.9387 17.7908C76.8414 18.5432 76.1781 19.0762 75.4591 19.0762ZM82.5069 14.8016L81.0797 18.3238H81.0373L79.5618 14.8016H78.2228L80.4398 19.7238L79.1748 22.4627H80.4722L83.8883 14.8016H82.5069ZM71.3148 20H72.5598V11.875H71.3148V20Z" fill="white"/>
<path d="M7.07095 5.40022C6.87538 5.6001 6.76221 5.91128 6.76221 6.31428V20.689C6.76221 21.092 6.87538 21.4032 7.07095 21.6031L7.11922 21.647L15.3695 13.5951V13.405L7.11922 5.3531L7.07095 5.40022Z" fill="url(#paint0_linear_1801_1156)"/>
<path d="M18.1164 16.2803L15.3694 13.595V13.4048L18.1198 10.7195L18.1813 10.7545L21.4385 12.5639C22.3681 13.0774 22.3681 13.9224 21.4385 14.4391L18.1813 16.2453L18.1164 16.2803Z" fill="url(#paint1_linear_1801_1156)"/>
<path d="M18.1813 16.2456L15.3694 13.5002L7.0708 21.6032C7.37954 21.9201 7.88302 21.9583 8.45556 21.6414L18.1813 16.2456Z" fill="url(#paint2_linear_1801_1156)"/>
<path d="M18.1813 10.7546L8.45556 5.35875C7.88302 5.04513 7.37954 5.08331 7.0708 5.40019L15.3694 13.5L18.1813 10.7546Z" fill="url(#paint3_linear_1801_1156)"/>
<defs>
<linearGradient id="paint0_linear_1801_1156" x1="14.637" y1="20.8387" x2="3.73156" y2="9.66905" gradientUnits="userSpaceOnUse">
<stop stop-color="#00A0FF"/>
<stop offset="0.0066" stop-color="#00A1FF"/>
<stop offset="0.2601" stop-color="#00BEFF"/>
<stop offset="0.5122" stop-color="#00D2FF"/>
<stop offset="0.7604" stop-color="#00DFFF"/>
<stop offset="1" stop-color="#00E3FF"/>
</linearGradient>
<linearGradient id="paint1_linear_1801_1156" x1="22.649" y1="13.499" x2="6.53987" y2="13.499" gradientUnits="userSpaceOnUse">
<stop stop-color="#FFE000"/>
<stop offset="0.4087" stop-color="#FFBD00"/>
<stop offset="0.7754" stop-color="#FFA500"/>
<stop offset="1" stop-color="#FF9C00"/>
</linearGradient>
<linearGradient id="paint2_linear_1801_1156" x1="16.6523" y1="12.0077" x2="1.86362" y2="-3.1393" gradientUnits="userSpaceOnUse">
<stop stop-color="#FF3A44"/>
<stop offset="1" stop-color="#C31162"/>
</linearGradient>
<linearGradient id="paint3_linear_1801_1156" x1="4.98188" y1="26.3855" x2="11.5857" y2="19.6217" gradientUnits="userSpaceOnUse">
<stop stop-color="#32A071"/>
<stop offset="0.0685" stop-color="#2DA771"/>
<stop offset="0.4762" stop-color="#15CF74"/>
<stop offset="0.8009" stop-color="#06E775"/>
<stop offset="1" stop-color="#00F076"/>
</linearGradient>
</defs>
</svg>
