<svg width="75" height="54" viewBox="0 0 75 54" fill="none" xmlns="http://www.w3.org/2000/svg">
<path d="M65.8776 37.2168C65.8776 37.2168 66.8309 50.0936 72.1917 53.1286C72.1917 53.1286 54.9903 50.1581 50.7579 43.7151C46.5301 37.2721 65.8776 37.2168 65.8776 37.2168Z" fill="url(#paint0_linear_1603_27616)"/>
<path d="M53.0189 43.7149H22.1348C10.1146 43.7149 0.277344 33.8777 0.277344 21.8574C0.277344 9.83723 10.1146 0 22.1348 0H53.0189C65.0391 0 74.8764 9.83723 74.8764 21.8574C74.8764 33.8777 65.0391 43.7149 53.0189 43.7149Z" fill="url(#paint1_linear_1603_27616)"/>
<path d="M23.723 30.2212C23.7368 30.4745 22.9953 30.631 21.4985 30.7001C20.0064 30.7692 19.2511 30.6771 19.2419 30.4238L19.007 25.321L15.9029 25.4637L16.1378 30.5666C16.1516 30.8199 15.4101 30.9764 13.9134 31.0455C12.4212 31.1146 11.6659 31.0225 11.6567 30.7692L10.9797 16.0594C10.9659 15.7508 11.7027 15.5574 13.1995 15.4883C14.6917 15.4192 15.447 15.539 15.4608 15.8522L15.7003 21.0655L18.8043 20.9228L18.5649 15.7554C18.5556 15.5482 18.9195 15.3824 19.6517 15.2627C20.034 15.2166 20.4116 15.1844 20.7801 15.166L21.913 15.1567C22.6545 15.212 23.0321 15.341 23.0413 15.5482L23.723 30.2212Z" fill="url(#paint2_linear_1603_27616)"/>
<path d="M34.2051 29.516C33.2978 30.1055 32.1142 30.4371 30.6497 30.5015C29.1852 30.5706 27.9279 30.1285 26.8778 29.1752C25.8278 28.2218 25.2613 26.8632 25.1784 25.0947C25.0955 23.3262 25.5146 21.8801 26.4357 20.7564C27.3568 19.6327 28.5542 19.034 30.0326 18.9695C31.5109 18.9004 32.6715 19.2274 33.5143 19.9412C34.3571 20.6597 34.7992 21.5578 34.8499 22.6354C34.9604 25.0303 33.6386 26.2922 30.8892 26.4211L29.3602 26.4902C29.3786 26.9323 29.5167 27.2363 29.77 27.3929C30.0233 27.554 30.3826 27.6185 30.8569 27.6001C31.8932 27.554 32.8649 27.2731 33.7768 26.7527C33.7906 26.7389 33.8597 26.8356 33.9886 27.0521C34.3709 27.6738 34.5735 28.1988 34.5966 28.6363C34.6104 29.0784 34.4814 29.3732 34.2051 29.516ZM31.1379 23.2341C31.1102 22.6124 30.7925 22.3177 30.1845 22.3453C29.9036 22.3591 29.6687 22.4558 29.4753 22.6354C29.2819 22.815 29.1944 23.0683 29.2082 23.3907L29.2404 24.0769L30.4378 24.0217C30.9306 23.9986 31.1609 23.7361 31.1379 23.2341Z" fill="url(#paint3_linear_1603_27616)"/>
<path d="M40.6581 29.6447C40.6627 29.7782 39.912 29.8796 38.406 29.9486C37.2224 29.9901 36.6283 29.9579 36.6237 29.8519L35.9283 14.7415C35.9191 14.5204 36.6283 14.3776 38.0652 14.3086C39.3225 14.2947 39.9581 14.3408 39.9627 14.4421L40.6581 29.6447Z" fill="url(#paint4_linear_1603_27616)"/>
<path d="M46.6952 29.3644C46.6998 29.498 45.9491 29.5993 44.4431 29.6684C43.2595 29.7098 42.6654 29.6776 42.6608 29.5717L41.9654 14.4612C41.9561 14.2401 42.6654 14.0974 44.1023 14.0283C45.3596 14.0145 45.9951 14.0605 45.9997 14.1618L46.6952 29.3644Z" fill="url(#paint5_linear_1603_27616)"/>
<path d="M49.6014 28.0978C48.6296 27.1215 48.1046 25.7306 48.0217 23.9253C47.9388 22.12 48.3349 20.6877 49.2145 19.6238C50.0941 18.56 51.3146 17.9935 52.8804 17.9198C54.4463 17.8461 55.7128 18.3021 56.6799 19.2784C57.6425 20.2548 58.1675 21.6502 58.2504 23.4509C58.3333 25.2563 57.9418 26.6886 57.0714 27.7524C56.201 28.8163 54.9805 29.3828 53.4147 29.4564C51.8442 29.5301 50.5731 29.0788 49.6014 28.0978ZM53.0646 21.6272C52.2311 21.664 51.8442 22.3641 51.9041 23.7273C51.9686 25.0859 52.4153 25.7491 53.2535 25.7122C54.0871 25.6754 54.4739 24.9753 54.414 23.6121C54.3496 22.2489 53.8982 21.5857 53.0646 21.6272Z" fill="#22A2A6"/>
<path d="M59.9269 25.6023C59.9223 25.5009 60.6039 25.4134 61.9717 25.3536C63.3395 25.2891 64.0257 25.3029 64.0303 25.3904L64.1777 28.5866C64.1823 28.734 63.5053 28.8399 62.1375 28.9044C60.7697 28.9688 60.0835 28.955 60.0789 28.8675L59.9269 25.6023ZM63.5237 24.1009C63.5283 24.1884 62.9987 24.2575 61.9441 24.3081C60.8848 24.3588 60.3552 24.345 60.3506 24.2713L59.4065 13.3518C59.4019 13.232 60.0742 13.1445 61.4282 13.0801C62.7822 13.0156 63.4592 13.0386 63.4639 13.1399L63.5237 24.1009Z" fill="url(#paint6_linear_1603_27616)"/>
<defs>
<linearGradient id="paint0_linear_1603_27616" x1="56.8939" y1="36.1549" x2="62.8162" y2="52.2297" gradientUnits="userSpaceOnUse">
<stop stop-color="#AEF0EB"/>
<stop offset="0.0131" stop-color="#B0F0EB"/>
<stop offset="0.1379" stop-color="#C2F4EB"/>
<stop offset="0.2895" stop-color="#CEF6EA"/>
<stop offset="0.4961" stop-color="#D5F8EA"/>
<stop offset="1" stop-color="#D7F8EA"/>
</linearGradient>
<linearGradient id="paint1_linear_1603_27616" x1="0.278817" y1="21.8587" x2="74.8751" y2="21.8587" gradientUnits="userSpaceOnUse">
<stop stop-color="#D7F8EA"/>
<stop offset="0.5053" stop-color="#ECF8F2"/>
<stop offset="1" stop-color="#D7F8EA"/>
</linearGradient>
<linearGradient id="paint2_linear_1603_27616" x1="17.3513" y1="7.82276" x2="17.3513" y2="41.0121" gradientUnits="userSpaceOnUse">
<stop stop-color="#61F5E9"/>
<stop offset="1" stop-color="#158EA0"/>
</linearGradient>
<linearGradient id="paint3_linear_1603_27616" x1="30.0122" y1="13.6375" x2="30.0122" y2="37.7261" gradientUnits="userSpaceOnUse">
<stop stop-color="#61F5E9"/>
<stop offset="1" stop-color="#158EA0"/>
</linearGradient>
<linearGradient id="paint4_linear_1603_27616" x1="38.2932" y1="7.08788" x2="38.2932" y2="39.7536" gradientUnits="userSpaceOnUse">
<stop stop-color="#61F5E9"/>
<stop offset="1" stop-color="#158EA0"/>
</linearGradient>
<linearGradient id="paint5_linear_1603_27616" x1="44.3302" y1="6.80761" x2="44.3302" y2="39.4733" gradientUnits="userSpaceOnUse">
<stop stop-color="#61F5E9"/>
<stop offset="1" stop-color="#158EA0"/>
</linearGradient>
<linearGradient id="paint6_linear_1603_27616" x1="61.7921" y1="5.71478" x2="61.7921" y2="38.8824" gradientUnits="userSpaceOnUse">
<stop stop-color="#61F5E9"/>
<stop offset="1" stop-color="#158EA0"/>
</linearGradient>
</defs>
</svg>
