<svg width="144" height="252" viewBox="0 0 144 252" fill="none" xmlns="http://www.w3.org/2000/svg">
<path d="M17.6157 142.072C37.636 147.559 42.3672 146.026 45.9329 151.399C46.3417 152.018 48.4376 155.17 48.0115 159.211C47.681 162.434 45.8807 164.925 44.7588 166.022C37.9056 172.667 19.0333 164.533 8.22307 155.641C5.8662 153.699 -0.456463 148.499 0.821984 144.807C1.3438 143.291 2.96143 142.542 4.12681 142.02C9.258 139.712 14.5979 141.245 17.6157 142.072Z" fill="url(#paint0_linear_1531_6596)"/>
<path d="M79.4163 7.33423H75.1548V35.334H79.4163V7.33423Z" fill="url(#paint1_linear_1531_6596)"/>
<path d="M92.0015 50.801H62.5798C60.4143 50.801 58.6488 49.0418 58.6488 46.8645V36.3352C58.6488 34.1666 60.4056 32.3987 62.5798 32.3987H92.0015C94.167 32.3987 95.9325 34.1579 95.9325 36.3352V46.8645C95.9325 49.0331 94.167 50.801 92.0015 50.801Z" fill="url(#paint2_linear_1531_6596)"/>
<path d="M143.991 111.99C143.991 128.999 130.224 142.785 113.238 142.785H41.341C24.4255 142.785 10.5887 128.929 10.5887 111.99V95.9913C10.5887 65.8491 35.2097 41.1936 65.3097 41.1936H89.2784C119.378 41.1936 143.999 65.8491 143.999 95.9913V111.99H143.991Z" fill="url(#paint3_linear_1531_6596)"/>
<path d="M123.004 109.073C121.256 109.935 119.299 110.388 117.316 110.388H37.2612C35.2696 110.388 33.3128 109.935 31.5734 109.073C27.2859 106.948 24.8681 102.663 25.4682 98.2651L25.5117 97.9429C27.5642 83.0503 41.0357 71.5978 57.5424 70.7443C64.5261 70.3786 71.8576 70.1957 79.5109 70.2392C85.503 70.2741 91.2952 70.4482 96.8699 70.7356C113.446 71.5891 127.013 82.9981 129.075 97.9429C129.092 98.0474 129.101 98.1606 129.118 98.2651C129.709 102.672 127.292 106.957 123.004 109.073Z" fill="url(#paint4_linear_1531_6596)"/>
<path d="M56.1865 107.113C64.5248 107.113 71.2843 100.344 71.2843 91.9938C71.2843 83.6438 64.5248 76.8748 56.1865 76.8748C47.8482 76.8748 41.0886 83.6438 41.0886 91.9938C41.0886 100.344 47.8482 107.113 56.1865 107.113Z" fill="url(#paint5_radial_1531_6596)"/>
<path d="M56.185 102.846C62.1697 102.846 67.0213 97.9878 67.0213 91.9946C67.0213 86.0015 62.1697 81.1431 56.185 81.1431C50.2002 81.1431 45.3486 86.0015 45.3486 91.9946C45.3486 97.9878 50.2002 102.846 56.185 102.846Z" fill="#EEFAFA"/>
<path d="M56.1866 101.105C61.2107 101.105 65.2835 97.0266 65.2835 91.9955C65.2835 86.9643 61.2107 82.8857 56.1866 82.8857C51.1624 82.8857 47.0896 86.9643 47.0896 91.9955C47.0896 97.0266 51.1624 101.105 56.1866 101.105Z" fill="url(#paint6_linear_1531_6596)"/>
<path d="M62.0203 89.6342C62.0203 91.498 60.507 93.0134 58.6459 93.0134C56.7848 93.0134 55.2715 91.498 55.2715 89.6342C55.2715 87.7705 56.7848 86.2551 58.6459 86.2551C60.507 86.2551 62.0203 87.7705 62.0203 89.6342Z" fill="#EEFAFA"/>
<path d="M54.8458 100.33C55.5903 100.33 56.1938 99.7253 56.1938 98.9798C56.1938 98.2343 55.5903 97.6299 54.8458 97.6299C54.1013 97.6299 53.4978 98.2343 53.4978 98.9798C53.4978 99.7253 54.1013 100.33 54.8458 100.33Z" fill="#EEFAFA"/>
<path d="M51.5068 96.9589C51.5068 97.3334 51.2025 97.6295 50.8373 97.6295C50.4635 97.6295 50.1678 97.3247 50.1678 96.9589C50.1678 96.5844 50.4721 96.2883 50.8373 96.2883C51.2025 96.2883 51.5068 96.5932 51.5068 96.9589Z" fill="#EEFAFA"/>
<path d="M96.967 107.113C105.305 107.113 112.065 100.344 112.065 91.9938C112.065 83.6438 105.305 76.8748 96.967 76.8748C88.6287 76.8748 81.8691 83.6438 81.8691 91.9938C81.8691 100.344 88.6287 107.113 96.967 107.113Z" fill="url(#paint7_radial_1531_6596)"/>
<path d="M96.9656 102.846C102.95 102.846 107.802 97.9873 107.802 91.9941C107.802 86.001 102.95 81.1426 96.9656 81.1426C90.9809 81.1426 86.1293 86.001 86.1293 91.9941C86.1293 97.9873 90.9809 102.846 96.9656 102.846Z" fill="#EEFAFA"/>
<path d="M96.9674 101.105C101.991 101.105 106.064 97.0264 106.064 91.9952C106.064 86.9641 101.991 82.8855 96.9674 82.8855C91.9432 82.8855 87.8704 86.9641 87.8704 91.9952C87.8704 97.0264 91.9432 101.105 96.9674 101.105Z" fill="url(#paint8_linear_1531_6596)"/>
<path d="M102.804 89.6342C102.804 91.498 101.29 93.0134 99.4293 93.0134C97.5682 93.0134 96.0549 91.498 96.0549 89.6342C96.0549 87.7705 97.5682 86.2551 99.4293 86.2551C101.29 86.2551 102.804 87.7705 102.804 89.6342Z" fill="#EEFAFA"/>
<path d="M95.6275 100.33C96.372 100.33 96.9755 99.7253 96.9755 98.9798C96.9755 98.2343 96.372 97.6299 95.6275 97.6299C94.883 97.6299 94.2794 98.2343 94.2794 98.9798C94.2794 99.7253 94.883 100.33 95.6275 100.33Z" fill="#EEFAFA"/>
<path d="M92.2875 96.9587C92.2875 97.3332 91.9832 97.6293 91.6181 97.6293C91.2442 97.6293 90.9486 97.3245 90.9486 96.9587C90.9486 96.5842 91.2529 96.2881 91.6181 96.2881C91.9919 96.2881 92.2875 96.5929 92.2875 96.9587Z" fill="#EEFAFA"/>
<path d="M82.7477 5.46932C82.7477 8.49138 80.3038 10.9386 77.286 10.9386C74.2682 10.9386 71.8243 8.49138 71.8243 5.46932C71.8243 2.44726 74.2682 0 77.286 0C80.3038 0 82.7477 2.44726 82.7477 5.46932Z" fill="url(#paint9_linear_1531_6596)"/>
<path d="M81.086 3.33514C81.086 4.25831 80.3381 4.99858 79.4249 4.99858C78.503 4.99858 77.7638 4.2496 77.7638 3.33514C77.7638 2.41198 78.5117 1.67171 79.4249 1.67171C80.3381 1.663 81.086 2.41198 81.086 3.33514Z" fill="white"/>
<path d="M124.292 58.7262C124.362 61.2779 122.283 64.3261 119.9 64.5874C117.665 64.8313 115.882 62.5495 114.047 60.1893C112.238 57.864 108.272 51.8982 109.847 50.2087C111.925 47.9879 124.118 52.6995 124.292 58.7262Z" fill="white"/>
<path d="M103.889 48.9976C104.936 48.9976 105.785 48.1476 105.785 47.099C105.785 46.0505 104.936 45.2004 103.889 45.2004C102.842 45.2004 101.993 46.0505 101.993 47.099C101.993 48.1476 102.842 48.9976 103.889 48.9976Z" fill="white"/>
<path d="M124.023 94.1275C123.414 94.5542 119.17 85.8973 107.777 78.3988C103.777 75.76 99.8195 73.8788 100.054 73.3301C100.289 72.7727 104.742 73.8091 108.308 75.4638C119.666 80.7329 124.745 93.6136 124.023 94.1275Z" fill="white"/>
<path d="M94.8538 37.8409C94.7147 37.8584 94.6277 37.0658 93.9667 35.8291C93.9667 35.8291 93.6537 35.2543 93.2971 34.7666C92.1491 33.1903 88.2789 33.2251 87.9745 33.2251C81.9389 33.2774 78.0514 32.8942 78.0514 32.929C78.0514 32.9638 80.8866 32.9029 82.9564 32.8593C88.8095 32.7374 92.2969 32.4239 93.7928 33.9915C94.4103 34.6447 94.7234 35.4895 94.7234 35.4895C95.1495 36.6478 95.0104 37.8235 94.8538 37.8409Z" fill="white"/>
<path d="M93.5925 116.877C93.4447 118.323 92.2445 119.437 90.7921 119.577L70.7979 121.51C69.3542 121.65 67.954 120.787 67.5365 119.394C67.3452 118.776 67.206 118.14 67.1104 117.478C67.0843 117.295 67.1278 117.112 67.2408 116.964C67.3539 116.816 67.5191 116.729 67.7017 116.712L92.9315 114.273C93.1142 114.256 93.2881 114.316 93.4273 114.43C93.5664 114.552 93.6447 114.717 93.6534 114.9C93.6794 115.579 93.6621 116.232 93.5925 116.877Z" fill="#EEFAFA"/>
<path d="M93.5908 116.885C92.956 123.095 88.0248 128.198 81.5804 128.817C75.2317 129.435 69.4917 125.49 67.6132 119.646C68.1176 120.891 69.4308 121.658 70.7962 121.518L90.7991 119.594C92.2428 119.437 93.443 118.331 93.5908 116.885Z" fill="url(#paint10_linear_1531_6596)"/>
<path d="M125.101 161.859C125.101 162.042 125.101 162.216 125.093 162.39C125.032 164.071 124.64 165.334 124.449 165.9C118.944 182.734 115.648 191.618 111.021 198.803C110.221 200.039 109.386 201.233 108.482 202.4C107.299 203.958 106.003 205.483 104.568 207.05C101.376 210.534 96.5407 212.11 94.984 212.65C89.2875 214.662 84.2519 214.296 80.9123 214.331H80.3296C76.9726 214.296 71.9458 214.671 66.258 212.65C64.7013 212.11 59.8571 210.534 56.674 207.05C47.8901 197.479 44.507 189.519 36.7929 165.9C36.6102 165.36 36.245 164.184 36.158 162.608C36.1319 162.155 36.1232 161.693 36.1493 161.24C36.3145 158.419 37.4625 155.649 39.4889 153.123C42.9677 148.786 48.3337 146.409 53.8823 146.391L80.634 146.278L106.899 146.174C112.569 146.147 118.066 148.534 121.666 152.923C123.405 155.048 124.519 157.347 124.927 159.716C124.98 160.056 125.032 160.396 125.067 160.735C125.075 161.101 125.101 161.475 125.101 161.859Z" fill="url(#paint11_linear_1531_6596)"/>
<path d="M80.6069 146.27L53.8552 146.383C48.3066 146.409 42.9319 148.787 39.4618 153.115C37.4354 155.641 36.2874 158.41 36.1222 161.232C36.2613 158.332 37.4441 155.493 39.5662 152.915C43.158 148.525 48.6631 146.139 54.3335 146.165L80.6069 146.27Z" fill="url(#paint12_linear_1531_6596)"/>
<path d="M107.203 185.739C106.812 164.959 104.003 160.848 108.142 155.901C108.621 155.335 111.047 152.435 115.039 151.695C118.222 151.103 121.11 152.122 122.475 152.905C130.781 157.617 128.311 178.04 122.849 190.929C121.658 193.742 118.457 201.284 114.561 201.102C112.961 201.032 111.787 199.682 110.96 198.715C107.299 194.43 107.264 188.874 107.203 185.739Z" fill="url(#paint13_linear_1531_6596)"/>
<path d="M111.021 198.803C110.221 200.039 109.386 201.232 108.481 202.399C108.194 202.103 107.942 201.807 107.707 201.537C104.046 197.252 104.011 191.696 103.95 188.561C103.559 167.781 100.75 163.67 104.889 158.732C105.194 158.366 106.307 157.042 108.107 155.945C104.02 160.874 106.803 165.02 107.194 185.739C107.246 188.874 107.298 194.431 110.951 198.724C110.977 198.742 111.003 198.768 111.021 198.803Z" fill="#475467"/>
<path d="M122.727 168.434C122.605 166.205 122.187 164.559 121.352 161.275C120.257 156.982 118.883 154.883 119.778 154.055C120.361 153.516 121.5 153.881 121.761 153.96C125.684 155.214 126.901 162.582 126.727 167.198C126.623 170.019 125.936 173.181 124.901 173.32C124.736 173.346 124.335 173.32 124.04 173.067C122.892 172.04 122.814 170.132 122.727 168.434Z" fill="white"/>
<path d="M125.424 176.317C125.424 176.77 125.058 177.136 124.606 177.136C124.154 177.136 123.789 176.77 123.789 176.317C123.789 175.864 124.154 175.498 124.606 175.498C125.058 175.498 125.424 175.864 125.424 176.317Z" fill="white"/>
<path d="M79.4156 251.867C102.985 251.867 122.091 244.033 122.091 234.37C122.091 224.707 102.985 216.874 79.4156 216.874C55.8465 216.874 36.7399 224.707 36.7399 234.37C36.7399 244.033 55.8465 251.867 79.4156 251.867Z" fill="url(#paint14_radial_1531_6596)"/>
<defs>
<linearGradient id="paint0_linear_1531_6596" x1="24.3607" y1="128.056" x2="24.3607" y2="185.738" gradientUnits="userSpaceOnUse">
<stop stop-color="#61F5E9"/>
<stop offset="1" stop-color="#158EA0"/>
</linearGradient>
<linearGradient id="paint1_linear_1531_6596" x1="77.2855" y1="-5.57191" x2="77.2855" y2="52.8339" gradientUnits="userSpaceOnUse">
<stop stop-color="#61F5E9"/>
<stop offset="1" stop-color="#158EA0"/>
</linearGradient>
<linearGradient id="paint2_linear_1531_6596" x1="77.2907" y1="23.9164" x2="77.2907" y2="62.3025" gradientUnits="userSpaceOnUse">
<stop stop-color="#61F5E9"/>
<stop offset="1" stop-color="#158EA0"/>
</linearGradient>
<linearGradient id="paint3_linear_1531_6596" x1="77.2941" y1="-5.63382" x2="77.2941" y2="206.28" gradientUnits="userSpaceOnUse">
<stop stop-color="#61F5E9"/>
<stop offset="1" stop-color="#158EA0"/>
</linearGradient>
<linearGradient id="paint4_linear_1531_6596" x1="77.0503" y1="110.263" x2="77.8515" y2="74.2651" gradientUnits="userSpaceOnUse">
<stop stop-color="#030D14"/>
<stop offset="1" stop-color="#0B2F45"/>
</linearGradient>
<radialGradient id="paint5_radial_1531_6596" cx="0" cy="0" r="1" gradientUnits="userSpaceOnUse" gradientTransform="translate(56.1879 91.9928) scale(14.9399 14.9608)">
<stop offset="0.1296" stop-color="#3280FC"/>
<stop offset="1"/>
</radialGradient>
<linearGradient id="paint6_linear_1531_6596" x1="47.0872" y1="91.9945" x2="65.2888" y2="91.9945" gradientUnits="userSpaceOnUse">
<stop stop-color="#030D14"/>
<stop offset="1" stop-color="#0B2F45"/>
</linearGradient>
<radialGradient id="paint7_radial_1531_6596" cx="0" cy="0" r="1" gradientUnits="userSpaceOnUse" gradientTransform="translate(96.9703 91.9928) scale(14.9399 14.9608)">
<stop offset="0.1296" stop-color="#3280FC"/>
<stop offset="1"/>
</radialGradient>
<linearGradient id="paint8_linear_1531_6596" x1="87.8698" y1="91.9943" x2="106.071" y2="91.9943" gradientUnits="userSpaceOnUse">
<stop stop-color="#030D14"/>
<stop offset="1" stop-color="#0B2F45"/>
</linearGradient>
<linearGradient id="paint9_linear_1531_6596" x1="77.286" y1="-5.04203" x2="77.286" y2="17.7753" gradientUnits="userSpaceOnUse">
<stop stop-color="#61F5E9"/>
<stop offset="1" stop-color="#158EA0"/>
</linearGradient>
<linearGradient id="paint10_linear_1531_6596" x1="76.7402" y1="124.245" x2="102.8" y2="98.2209" gradientUnits="userSpaceOnUse">
<stop offset="0.0714" stop-color="#0DA9AB"/>
<stop offset="1" stop-color="#DEFA8E"/>
</linearGradient>
<linearGradient id="paint11_linear_1531_6596" x1="80.6175" y1="114.754" x2="80.6174" y2="256.941" gradientUnits="userSpaceOnUse">
<stop stop-color="#61F5E9"/>
<stop offset="1" stop-color="#158EA0"/>
</linearGradient>
<linearGradient id="paint12_linear_1531_6596" x1="48.51" y1="163.13" x2="90.0408" y2="114.701" gradientUnits="userSpaceOnUse">
<stop offset="0.0397" stop-color="#06CFF1"/>
<stop offset="1" stop-color="#DEFA8E"/>
</linearGradient>
<linearGradient id="paint13_linear_1531_6596" x1="116.882" y1="128.661" x2="116.882" y2="232.097" gradientUnits="userSpaceOnUse">
<stop stop-color="#61F5E9"/>
<stop offset="1" stop-color="#158EA0"/>
</linearGradient>
<radialGradient id="paint14_radial_1531_6596" cx="0" cy="0" r="1" gradientUnits="userSpaceOnUse" gradientTransform="translate(79.4174 234.366) scale(42.6756 17.4953)">
<stop stop-color="#C5ECEB"/>
<stop offset="1" stop-color="white"/>
</radialGradient>
</defs>
</svg>
