<svg width="89" height="168" viewBox="0 0 89 168" fill="none" xmlns="http://www.w3.org/2000/svg">
<path d="M45.9154 4.87549H43.0825V23.4886H45.9154V4.87549Z" fill="url(#paint0_linear_1531_6786)"/>
<path d="M54.2813 33.7702H34.723C33.2835 33.7702 32.1099 32.6008 32.1099 31.1534V24.1539C32.1099 22.7124 33.2777 21.5371 34.723 21.5371H54.2813C55.7209 21.5371 56.8945 22.7066 56.8945 24.1539V31.1534C56.8945 32.595 55.7209 33.7702 54.2813 33.7702Z" fill="url(#paint1_linear_1531_6786)"/>
<path d="M88.8425 74.4462C88.8425 85.753 79.6906 94.9178 68.3996 94.9178H20.6052C9.36048 94.9178 0.162354 85.7067 0.162354 74.4462V63.811C0.162354 43.7737 16.5294 27.3838 36.5386 27.3838H52.472C72.4813 27.3838 88.8483 43.7737 88.8483 63.811V74.4462H88.8425Z" fill="url(#paint2_linear_1531_6786)"/>
<path d="M74.8915 72.5069C73.7295 73.08 72.4287 73.3811 71.1105 73.3811H17.8932C16.5693 73.3811 15.2684 73.08 14.1122 72.5069C11.262 71.0942 9.65476 68.2458 10.0537 65.3222L10.0826 65.108C11.447 55.208 20.4023 47.5948 31.3753 47.0275C36.0177 46.7843 40.8914 46.6628 45.979 46.6917C49.9623 46.7149 53.8127 46.8306 57.5186 47.0217C68.5378 47.5891 77.5567 55.1732 78.9269 65.108C78.9385 65.1774 78.9443 65.2527 78.9558 65.3222C79.3489 68.2516 77.7417 71.1 74.8915 72.5069Z" fill="url(#paint3_linear_1531_6786)"/>
<path d="M30.4742 71.204C36.0171 71.204 40.5106 66.7042 40.5106 61.1535C40.5106 55.6028 36.0171 51.103 30.4742 51.103C24.9312 51.103 20.4377 55.6028 20.4377 61.1535C20.4377 66.7042 24.9312 71.204 30.4742 71.204Z" fill="url(#paint4_radial_1531_6786)"/>
<path d="M30.4736 68.3677C34.452 68.3677 37.6771 65.1381 37.6771 61.1541C37.6771 57.1701 34.452 53.9404 30.4736 53.9404C26.4952 53.9404 23.27 57.1701 23.27 61.1541C23.27 65.1381 26.4952 68.3677 30.4736 68.3677Z" fill="#EEFDFF"/>
<path d="M30.4723 67.2107C33.8122 67.2107 36.5196 64.4994 36.5196 61.1549C36.5196 57.8104 33.8122 55.0991 30.4723 55.0991C27.1325 55.0991 24.425 57.8104 24.425 61.1549C24.425 64.4994 27.1325 67.2107 30.4723 67.2107Z" fill="url(#paint5_linear_1531_6786)"/>
<path d="M34.3518 59.5852C34.3518 60.8241 33.3459 61.8315 32.1086 61.8315C30.8714 61.8315 29.8655 60.8241 29.8655 59.5852C29.8655 58.3462 30.8714 57.3389 32.1086 57.3389C33.3459 57.3389 34.3518 58.3462 34.3518 59.5852Z" fill="#EEFDFF"/>
<path d="M29.5824 66.6946C30.0773 66.6946 30.4785 66.2929 30.4785 65.7973C30.4785 65.3017 30.0773 64.8999 29.5824 64.8999C29.0875 64.8999 28.6863 65.3017 28.6863 65.7973C28.6863 66.2929 29.0875 66.6946 29.5824 66.6946Z" fill="#EEFDFF"/>
<path d="M27.362 64.4541C27.362 64.703 27.1597 64.8999 26.917 64.8999C26.6684 64.8999 26.4719 64.6972 26.4719 64.4541C26.4719 64.2051 26.6742 64.0083 26.917 64.0083C27.1597 64.0083 27.362 64.2109 27.362 64.4541Z" fill="#EEFDFF"/>
<path d="M57.5828 71.204C63.1258 71.204 67.6192 66.7042 67.6192 61.1535C67.6192 55.6028 63.1258 51.103 57.5828 51.103C52.0399 51.103 47.5464 55.6028 47.5464 61.1535C47.5464 66.7042 52.0399 71.204 57.5828 71.204Z" fill="url(#paint6_radial_1531_6786)"/>
<path d="M57.5827 68.3677C61.5611 68.3677 64.7863 65.1381 64.7863 61.1541C64.7863 57.1701 61.5611 53.9404 57.5827 53.9404C53.6043 53.9404 50.3792 57.1701 50.3792 61.1541C50.3792 65.1381 53.6043 68.3677 57.5827 68.3677Z" fill="#EEFDFF"/>
<path d="M57.5822 67.2107C60.922 67.2107 63.6295 64.4994 63.6295 61.1549C63.6295 57.8104 60.922 55.0991 57.5822 55.0991C54.2424 55.0991 51.5349 57.8104 51.5349 61.1549C51.5349 64.4994 54.2424 67.2107 57.5822 67.2107Z" fill="url(#paint7_linear_1531_6786)"/>
<path d="M61.4609 59.5852C61.4609 60.8241 60.455 61.8315 59.2178 61.8315C57.9806 61.8315 56.9746 60.8241 56.9746 59.5852C56.9746 58.3462 57.9806 57.3389 59.2178 57.3389C60.455 57.3389 61.4609 58.3462 61.4609 59.5852Z" fill="#EEFDFF"/>
<path d="M56.6915 66.6946C57.1864 66.6946 57.5876 66.2929 57.5876 65.7973C57.5876 65.3017 57.1864 64.8999 56.6915 64.8999C56.1966 64.8999 55.7954 65.3017 55.7954 65.7973C55.7954 66.2929 56.1966 66.6946 56.6915 66.6946Z" fill="#EEFDFF"/>
<path d="M54.4711 64.4546C54.4711 64.7035 54.2688 64.9004 54.0261 64.9004C53.7776 64.9004 53.5811 64.6977 53.5811 64.4546C53.5811 64.2056 53.7833 64.0088 54.0261 64.0088C54.2746 64.0088 54.4711 64.2114 54.4711 64.4546Z" fill="#EEFDFF"/>
<path d="M48.1298 3.63578C48.1298 5.64472 46.5052 7.27155 44.4991 7.27155C42.493 7.27155 40.8684 5.64472 40.8684 3.63578C40.8684 1.62684 42.493 0 44.4991 0C46.5052 0 48.1298 1.62684 48.1298 3.63578Z" fill="url(#paint8_linear_1531_6786)"/>
<path d="M47.0261 2.21667C47.0261 2.83035 46.5289 3.32246 45.9219 3.32246C45.309 3.32246 44.8176 2.82457 44.8176 2.21667C44.8176 1.60299 45.3148 1.11089 45.9219 1.11089C46.5289 1.1051 47.0261 1.60299 47.0261 2.21667Z" fill="white"/>
<path d="M56.1786 25.1549C56.0861 25.1665 56.0283 24.6397 55.5889 23.8176C55.5889 23.8176 55.3808 23.4354 55.1437 23.1112C54.3806 22.0633 51.8079 22.0865 51.6055 22.0865C47.5933 22.1212 45.009 21.8665 45.009 21.8897C45.009 21.9128 46.8937 21.8723 48.2697 21.8433C52.1606 21.7623 54.4789 21.5539 55.4733 22.596C55.8837 23.0302 56.0919 23.5918 56.0919 23.5918C56.3752 24.3618 56.2827 25.1433 56.1786 25.1549Z" fill="white"/>
<path d="M55.3401 77.6949C55.2418 78.656 54.444 79.397 53.4785 79.4896L40.1871 80.7749C39.2274 80.8675 38.2966 80.2944 38.0191 79.3681C37.8919 78.957 37.7994 78.5344 37.7358 78.0944C37.7185 77.9728 37.7474 77.8512 37.8226 77.7528C37.8977 77.6544 38.0076 77.5965 38.129 77.5849L54.9007 75.9639C55.0221 75.9523 55.1377 75.9928 55.2302 76.0681C55.3227 76.1491 55.3747 76.2591 55.3805 76.3807C55.3979 76.8323 55.3863 77.2665 55.3401 77.6949Z" fill="#EEFDFF"/>
<path d="M55.3397 77.7002C54.9177 81.8281 51.6396 85.2207 47.3556 85.6317C43.1353 86.0428 39.3196 83.4202 38.0708 79.5354C38.4061 80.3633 39.2791 80.8728 40.1868 80.7802L53.4839 79.5007C54.4436 79.3965 55.2414 78.6612 55.3397 77.7002Z" fill="url(#paint9_linear_1531_6786)"/>
<path d="M76.2854 107.597C76.2854 107.718 76.2854 107.834 76.2797 107.95C76.2392 109.067 75.979 109.907 75.8518 110.283C72.1922 121.474 70.0011 127.379 66.9254 132.156C66.3935 132.978 65.8385 133.771 65.2373 134.547C64.451 135.583 63.5896 136.596 62.6357 137.638C60.5139 139.954 57.2995 141.002 56.2646 141.361C52.4778 142.698 49.1304 142.455 46.9104 142.478H46.5231C44.2915 142.455 40.9498 142.704 37.1688 141.361C36.134 141.002 32.9137 139.954 30.7978 137.638C24.9586 131.276 22.7097 125.984 17.5816 110.283C17.4602 109.924 17.2174 109.143 17.1596 108.095C17.1422 107.794 17.1364 107.487 17.1538 107.186C17.2636 105.31 18.0268 103.469 19.3738 101.79C21.6864 98.9069 25.2535 97.3264 28.942 97.3148L46.7254 97.2395L64.1851 97.1701C67.9545 97.1527 71.6083 98.739 74.0018 101.657C75.1581 103.07 75.8981 104.598 76.1698 106.173C76.2045 106.398 76.2392 106.624 76.2623 106.85C76.2681 107.093 76.2854 107.342 76.2854 107.597Z" fill="url(#paint10_linear_1531_6786)"/>
<path d="M46.7076 97.2342L28.9242 97.3094C25.2357 97.3268 21.6628 98.9073 19.356 101.785C18.009 103.464 17.2458 105.305 17.136 107.18C17.2285 105.253 18.0147 103.365 19.4254 101.652C21.8131 98.7336 25.4727 97.1473 29.2421 97.1647L46.7076 97.2342Z" fill="url(#paint11_linear_1531_6786)"/>
<path d="M64.3873 123.471C64.1271 109.658 62.2597 106.925 65.0116 103.637C65.3296 103.26 66.9426 101.332 69.5963 100.84C71.7122 100.447 73.6316 101.124 74.5393 101.645C80.0605 104.777 78.4186 118.353 74.7879 126.922C73.9959 128.792 71.8683 133.805 69.2783 133.684C68.2145 133.638 67.434 132.74 66.8848 132.098C64.4509 129.249 64.4277 125.556 64.3873 123.471Z" fill="url(#paint12_linear_1531_6786)"/>
<path d="M66.9246 132.156C66.3928 132.978 65.8378 133.771 65.2365 134.547C65.0457 134.35 64.878 134.153 64.7219 133.974C62.288 131.125 62.2649 127.432 62.2244 125.348C61.9642 111.534 60.0969 108.801 62.8488 105.519C63.0511 105.275 63.7912 104.395 64.9879 103.666C62.2707 106.943 64.1207 109.699 64.3808 123.472C64.4155 125.556 64.4502 129.25 66.8784 132.104C66.8957 132.115 66.9131 132.133 66.9246 132.156Z" fill="#475467"/>
<path d="M74.7069 111.968C74.626 110.486 74.3484 109.392 73.7934 107.209C73.065 104.355 72.1515 102.96 72.747 102.41C73.1344 102.051 73.8917 102.294 74.0652 102.346C76.6725 103.18 77.4819 108.078 77.3663 111.146C77.2969 113.022 76.8402 115.123 76.1522 115.216C76.0424 115.233 75.7764 115.216 75.5799 115.048C74.8167 114.365 74.7647 113.097 74.7069 111.968Z" fill="white"/>
<path d="M76.4996 117.208C76.4996 117.509 76.2569 117.752 75.9564 117.752C75.6558 117.752 75.4131 117.509 75.4131 117.208C75.4131 116.907 75.6558 116.664 75.9564 116.664C76.2569 116.664 76.4996 116.907 76.4996 117.208Z" fill="white"/>
<path d="M45.9165 167.43C61.5843 167.43 74.2855 162.223 74.2855 155.799C74.2855 149.376 61.5843 144.168 45.9165 144.168C30.2486 144.168 17.5474 149.376 17.5474 155.799C17.5474 162.223 30.2486 167.43 45.9165 167.43Z" fill="url(#paint13_radial_1531_6786)"/>
<defs>
<linearGradient id="paint0_linear_1531_6786" x1="44.4989" y1="-3.70398" x2="44.4989" y2="35.1218" gradientUnits="userSpaceOnUse">
<stop stop-color="#61F5E9"/>
<stop offset="1" stop-color="#158EA0"/>
</linearGradient>
<linearGradient id="paint1_linear_1531_6786" x1="44.5022" y1="15.8984" x2="44.5022" y2="41.4159" gradientUnits="userSpaceOnUse">
<stop stop-color="#61F5E9"/>
<stop offset="1" stop-color="#158EA0"/>
</linearGradient>
<linearGradient id="paint2_linear_1531_6786" x1="44.5053" y1="-3.74515" x2="44.5053" y2="137.126" gradientUnits="userSpaceOnUse">
<stop stop-color="#61F5E9"/>
<stop offset="1" stop-color="#158EA0"/>
</linearGradient>
<linearGradient id="paint3_linear_1531_6786" x1="44.3433" y1="73.2977" x2="44.8759" y2="49.3679" gradientUnits="userSpaceOnUse">
<stop stop-color="#030D14"/>
<stop offset="1" stop-color="#0B2F45"/>
</linearGradient>
<radialGradient id="paint4_radial_1531_6786" cx="0" cy="0" r="1" gradientUnits="userSpaceOnUse" gradientTransform="translate(30.4751 61.1529) scale(9.93144 9.94535)">
<stop offset="0.1296" stop-color="#3280FC"/>
<stop offset="1"/>
</radialGradient>
<linearGradient id="paint5_linear_1531_6786" x1="24.4234" y1="61.1543" x2="36.5231" y2="61.1543" gradientUnits="userSpaceOnUse">
<stop stop-color="#030D14"/>
<stop offset="1" stop-color="#0B2F45"/>
</linearGradient>
<radialGradient id="paint6_radial_1531_6786" cx="0" cy="0" r="1" gradientUnits="userSpaceOnUse" gradientTransform="translate(57.585 61.1529) scale(9.93143 9.94535)">
<stop offset="0.1296" stop-color="#3280FC"/>
<stop offset="1"/>
</radialGradient>
<linearGradient id="paint7_linear_1531_6786" x1="51.5346" y1="61.1543" x2="63.6342" y2="61.1543" gradientUnits="userSpaceOnUse">
<stop stop-color="#030D14"/>
<stop offset="1" stop-color="#0B2F45"/>
</linearGradient>
<linearGradient id="paint8_linear_1531_6786" x1="44.4991" y1="-3.35173" x2="44.4991" y2="11.8163" gradientUnits="userSpaceOnUse">
<stop stop-color="#61F5E9"/>
<stop offset="1" stop-color="#158EA0"/>
</linearGradient>
<linearGradient id="paint9_linear_1531_6786" x1="44.1381" y1="82.5924" x2="61.4618" y2="65.2929" gradientUnits="userSpaceOnUse">
<stop offset="0.0714" stop-color="#0DA9AB"/>
<stop offset="1" stop-color="#DEFA8E"/>
</linearGradient>
<linearGradient id="paint10_linear_1531_6786" x1="46.7144" y1="76.2835" x2="46.7144" y2="170.803" gradientUnits="userSpaceOnUse">
<stop stop-color="#61F5E9"/>
<stop offset="1" stop-color="#158EA0"/>
</linearGradient>
<linearGradient id="paint11_linear_1531_6786" x1="25.3709" y1="108.442" x2="52.9788" y2="76.2484" gradientUnits="userSpaceOnUse">
<stop offset="0.0397" stop-color="#06CFF1"/>
<stop offset="1" stop-color="#DEFA8E"/>
</linearGradient>
<linearGradient id="paint12_linear_1531_6786" x1="70.8211" y1="85.5286" x2="70.8211" y2="154.288" gradientUnits="userSpaceOnUse">
<stop stop-color="#61F5E9"/>
<stop offset="1" stop-color="#158EA0"/>
</linearGradient>
<radialGradient id="paint13_radial_1531_6786" cx="0" cy="0" r="1" gradientUnits="userSpaceOnUse" gradientTransform="translate(45.9176 155.797) scale(28.369 11.6302)">
<stop stop-color="#C5ECEB"/>
<stop offset="1" stop-color="white"/>
</radialGradient>
</defs>
</svg>
